<?xml version="1.0" standalone="no"?>
<!DOCTYPE svg PUBLIC "-//W3C//DTD SVG 1.1//EN" "http://www.w3.org/Graphics/SVG/1.1/DTD/svg11.dtd" >
<svg>
<metadata>
Created by FontForge 20090622 at Thu Jun 16 13:35:58 2016
 By deploy user
Copyright (c) 2013 by Goran Soderstrom. All rights reserved.
</metadata>
<defs>
<font id="Kumla-Regular" horiz-adv-x="770" >
  <font-face 
    font-family="Kumla"
    font-weight="400"
    font-stretch="normal"
    units-per-em="1000"
    panose-1="2 0 0 0 0 0 0 0 0 0"
    ascent="897"
    descent="-103"
    x-height="700"
    cap-height="700"
    bbox="-60 -247 1410 917"
    underline-thickness="50"
    underline-position="-50"
    unicode-range="U+000D-U+FB02"
  />
<missing-glyph horiz-adv-x="670" 
d="M110 -88v876h450v-876h-450zM197 -10h276v720h-276v-720z" />
    <glyph glyph-name="fi" unicode="fi" horiz-adv-x="1061" 
d="M110 0v700h521v-113h-401v-137h316v-113h-316v-337h-120zM821 0v700h120v-700h-120z" />
    <glyph glyph-name="fl" unicode="fl" horiz-adv-x="1366" 
d="M110 0v700h521v-113h-401v-137h316v-113h-316v-337h-120zM811 0v700h120v-587h385v-113h-505z" />
    <glyph glyph-name=".notdef" horiz-adv-x="670" 
d="M110 -88v876h450v-876h-450zM197 -10h276v720h-276v-720z" />
    <glyph glyph-name=".null" horiz-adv-x="0" 
 />
    <glyph glyph-name=".null" horiz-adv-x="0" 
 />
    <glyph glyph-name="nonmarkingreturn" horiz-adv-x="333" 
 />
    <glyph glyph-name="CR" unicode="&#xd;" horiz-adv-x="300" 
 />
    <glyph glyph-name="space" unicode=" " horiz-adv-x="400" 
 />
    <glyph glyph-name="exclam" unicode="!" horiz-adv-x="370" 
d="M125 210v490h120v-490h-120zM120 0v130h130v-130h-130z" />
    <glyph glyph-name="quotedbl" unicode="&#x22;" horiz-adv-x="530" 
d="M113 453l-13 247h121l-13 -247h-95zM322 453l-13 247h121l-13 -247h-95z" />
    <glyph glyph-name="numbersign" unicode="#" horiz-adv-x="730" 
d="M140 0l30 191h-90v100h106l20 123h-92v100h107l30 186h107l-30 -186h126l30 186h107l-30 -186h89v-100h-104l-20 -123h90v-100h-106l-30 -191h-107l30 191h-126l-30 -191h-107zM293 291h126l20 123h-126z" />
    <glyph glyph-name="dollar" unicode="$" horiz-adv-x="730" 
d="M100 113v125h120v-106q0 -19 19 -19h95v217l-34 7q-101 19 -153 60t-52 122q0 84 51.5 132.5t155.5 48.5h32v83h73v-83h103q63 0 91.5 -27t28.5 -86v-75h-120v56q0 19 -19 19h-84v-161l114 -21q62 -12 85.5 -31t23.5 -63v-198q0 -59 -28.5 -86t-91.5 -27h-103v-83h-73v83
h-114q-63 0 -91.5 27t-28.5 86zM407 113h84q19 0 19 19v143q0 13 -6 17.5t-26 8.5l-71 14v-202zM328 441l6 -1v147h-36q-40 0 -61.5 -16.5t-21.5 -47.5q0 -35 26.5 -53t86.5 -29z" />
    <glyph glyph-name="percent" unicode="%" horiz-adv-x="945" 
d="M70 473v120q0 52 28 79.5t98 27.5h66q70 0 98 -27.5t28 -79.5v-120q0 -52 -28 -79.5t-98 -27.5h-66q-70 0 -98 27.5t-28 79.5zM193 0l458 700h103l-458 -700h-103zM205 450h48q28 0 38 10t10 32v82q0 22 -10 32t-38 10h-48q-28 0 -38 -10t-10 -32v-82q0 -22 10 -32
t38 -10zM557 107v120q0 52 28 79.5t98 27.5h66q70 0 98 -27.5t28 -79.5v-120q0 -52 -28 -79.5t-98 -27.5h-66q-70 0 -98 27.5t-28 79.5zM692 84h48q28 0 38 10t10 32v82q0 22 -10 32t-38 10h-48q-28 0 -38 -10t-10 -32v-82q0 -22 10 -32t38 -10z" />
    <glyph glyph-name="ampersand" unicode="&#x26;" horiz-adv-x="806" 
d="M100 113v165q0 46 14.5 66t69.5 39l20 7q-64 68 -64 139q0 81 49.5 126t152.5 45h79q92 0 147 -42t56 -128h-119q0 57 -81 57h-92q-72 0 -72 -56q0 -26 20.5 -53.5t81.5 -86.5l183 -178l39 84l107 -47l-58 -122l133 -128h-159l-32 31q-32 -31 -114 -31h-241
q-63 0 -91.5 27t-28.5 86zM239 113h210q25 0 37 4l-201 195l-19 -6q-31 -9 -38.5 -18t-7.5 -32v-124q0 -19 19 -19z" />
    <glyph glyph-name="quotesingle" unicode="'" horiz-adv-x="321" 
d="M113 453l-13 247h121l-13 -247h-95z" />
    <glyph glyph-name="parenleft" unicode="(" horiz-adv-x="460" 
d="M370 0v-113q-47 4 -93 33.5t-86.5 83t-65.5 141t-25 194.5v20q0 108 25 196t65.5 141.5t86.5 83t93 33.5v-113q-52 -10 -101 -96.5t-49 -243.5v-20q0 -157 49 -243.5t101 -96.5z" />
    <glyph glyph-name="parenright" unicode=")" horiz-adv-x="460" 
d="M90 -113v113q52 10 101 96.5t49 243.5v20q0 157 -49 243.5t-101 96.5v113q47 -4 93 -33.5t86.5 -83t65.5 -141.5t25 -196v-20q0 -107 -25 -194.5t-65.5 -141t-86.5 -83t-93 -33.5z" />
    <glyph glyph-name="asterisk" unicode="*" horiz-adv-x="493" 
d="M118 412l-37 67l89 51l-90 52l39 66l89 -52v104h77v-104l90 52l37 -67l-89 -51l90 -52l-39 -66l-89 51v-103h-77v104z" />
    <glyph glyph-name="plus" unicode="+" horiz-adv-x="756" 
d="M321 59v232h-231v113h231v231h113v-231h232v-113h-232v-232h-113z" />
    <glyph glyph-name="comma" unicode="," horiz-adv-x="330" 
d="M119 -117v60h24q19 0 19 19v38h-62v130h130v-165q0 -82 -86 -82h-25z" />
    <glyph glyph-name="hyphen" unicode="-" horiz-adv-x="546" 
d="M90 307v113h366v-113h-366z" />
    <glyph glyph-name="period" unicode="." horiz-adv-x="330" 
d="M100 0v130h130v-130h-130z" />
    <glyph glyph-name="slash" unicode="/" horiz-adv-x="521" 
d="M80 0l241 700h120l-241 -700h-120z" />
    <glyph glyph-name="zero" unicode="0" horiz-adv-x="730" 
d="M100 178v344q0 89 48.5 133.5t156.5 44.5h120q108 0 156.5 -44.5t48.5 -133.5v-344q0 -89 -48.5 -133.5t-156.5 -44.5h-120q-108 0 -156.5 44.5t-48.5 133.5zM303 113h124q50 0 66.5 17.5t16.5 63.5v312q0 46 -16.5 63.5t-66.5 17.5h-124q-50 0 -66.5 -17.5t-16.5 -63.5
v-312q0 -46 16.5 -63.5t66.5 -17.5z" />
    <glyph glyph-name="one" unicode="1" horiz-adv-x="730" 
d="M158 0v113h190v456l-130 -112l-78 84l178 159h150v-587h150v-113h-460z" />
    <glyph glyph-name="two" unicode="2" horiz-adv-x="730" 
d="M95 0v103l304 269l56 51q17 16 33.5 43.5t16.5 54.5q0 66 -79 66h-132q-79 0 -79 -65v-21h-120v27q0 78 51.5 125t150.5 47h126q105 0 153.5 -50t48.5 -128q0 -37 -8.5 -66.5t-31 -57.5t-40.5 -45.5t-56 -51.5l-213 -188h349v-113h-530z" />
    <glyph glyph-name="three" unicode="3" horiz-adv-x="730" 
d="M110 113v85h120v-66q0 -19 19 -19h232q19 0 19 19v81q0 18 -5 25.5t-24 15.5l-204 84v93l196 156h-343v113h500v-113l-227 -182l138 -57q57 -24 73 -44t16 -60v-131q0 -59 -28.5 -86t-91.5 -27h-270q-63 0 -91.5 27t-28.5 86z" />
    <glyph glyph-name="four" unicode="4" horiz-adv-x="730" 
d="M85 169v103l188 428h126l-185 -418h241v278h120v-278h70v-113h-70v-169h-120v169h-370z" />
    <glyph glyph-name="five" unicode="5" horiz-adv-x="730" 
d="M105 113v85h120v-66q0 -19 19 -19h232q19 0 19 19v109q0 16 -4.5 22.5t-20.5 11.5l-278 94q-57 19 -72 38.5t-15 61.5v231h510v-113h-390v-109l300 -101q60 -21 75 -41.5t15 -69.5v-153q0 -59 -28.5 -86t-91.5 -27h-270q-63 0 -91.5 27t-28.5 86z" />
    <glyph glyph-name="six" unicode="6" horiz-adv-x="730" 
d="M100 113v150q0 10 1 18t2 14.5t5 14.5t5.5 12t8 13.5t9.5 13t12 15.5l13 17l245 319h146l-161 -210l178 -113q39 -25 52.5 -50.5t13.5 -68.5v-145q0 -59 -28.5 -86t-91.5 -27h-290q-63 0 -91.5 27t-28.5 86zM239 113h252q19 0 19 19v108q0 23 -6.5 34.5t-30.5 25.5
l-158 98l-77 -101q-18 -24 -18 -56v-109q0 -19 19 -19z" />
    <glyph glyph-name="seven" unicode="7" horiz-adv-x="730" 
d="M242 0l256 587h-398v113h530v-103l-259 -597h-129z" />
    <glyph glyph-name="eight" unicode="8" horiz-adv-x="730" 
d="M100 113v160q0 42 12 61.5t54 32.5l33 11q-99 47 -99 151q0 76 48.5 123.5t153.5 47.5h126q105 0 153.5 -48t48.5 -123q0 -105 -101 -151l35 -11q42 -13 54 -32.5t12 -61.5v-160q0 -59 -28.5 -86t-91.5 -27h-290q-63 0 -91.5 27t-28.5 86zM239 113h252q19 0 19 19v110
q0 21 -8 31t-29 17l-115 35l-101 -31q-21 -7 -29 -17t-8 -31v-114q0 -19 19 -19zM327 442l44 -14l39 12q56 17 78.5 34t22.5 55q0 58 -80 58h-132q-43 0 -61.5 -16t-18.5 -47t24.5 -47.5t83.5 -34.5z" />
    <glyph glyph-name="nine" unicode="9" horiz-adv-x="730" 
d="M161 0l185 241l-105 66q-75 47 -108 92.5t-33 118.5q0 182 202 182h126q108 0 155 -49.5t47 -132.5q0 -51 -20 -95t-74 -115l-234 -308h-141zM319 394l97 -61l24 31q25 33 37 50.5t22.5 46t10.5 57.5q0 69 -80 69h-130q-80 0 -80 -69q0 -40 22.5 -65.5t76.5 -58.5z" />
    <glyph glyph-name="colon" unicode=":" horiz-adv-x="330" 
d="M100 0v130h130v-130h-130zM100 410v130h130v-130h-130z" />
    <glyph glyph-name="semicolon" unicode=";" horiz-adv-x="330" 
d="M119 -117v60h24q19 0 19 19v38h-62v130h130v-165q0 -82 -86 -82h-25zM100 410v130h130v-130h-130z" />
    <glyph glyph-name="less" unicode="&#x3c;" horiz-adv-x="756" 
d="M90 291v113l576 200v-113l-414 -144l414 -143v-113z" />
    <glyph glyph-name="equal" unicode="=" horiz-adv-x="756" 
d="M90 191v113h576v-113h-576zM90 391v113h576v-113h-576z" />
    <glyph glyph-name="greater" unicode="&#x3e;" horiz-adv-x="756" 
d="M90 91v113l414 143l-414 144v113l576 -200v-113z" />
    <glyph glyph-name="question" unicode="?" horiz-adv-x="617" 
d="M155 210v104q0 22 8 32.5t32 22.5l131 66q55 28 78.5 48t23.5 50q0 29 -16.5 41.5t-52.5 12.5h-259v113h254q193 0 193 -163q0 -66 -36 -108t-100 -75l-118 -60q-18 -9 -18 -29v-55h-120zM150 0v130h130v-130h-130z" />
    <glyph glyph-name="at" unicode="@" horiz-adv-x="1156" 
d="M110 35v588q0 89 48.5 133.5t156.5 44.5h526q108 0 156.5 -44.5t48.5 -133.5v-379q0 -89 -48.5 -133.5t-156.5 -44.5h-371q-113 0 -113 107v67q0 43 13.5 64t63.5 36l255 75q-1 42 -18 58.5t-65 16.5h-122q-17 0 -17 -17v-49h-110v88q0 42 22 61.5t74 19.5h141
q108 0 156.5 -44.5t48.5 -133.5v-246h54q50 0 66.5 17.5t16.5 63.5v367q0 46 -16.5 63.5t-66.5 17.5h-550q-50 0 -66.5 -17.5t-16.5 -63.5v-576q0 -46 16.5 -63.5t66.5 -17.5h500v-103h-488q-108 0 -156.5 44.5t-48.5 133.5zM484 169h205v149l-198 -59q-15 -4 -19.5 -9.5
t-4.5 -17.5v-45q0 -18 17 -18z" />
    <glyph glyph-name="A" unicode="A" horiz-adv-x="752" 
d="M80 0l131 700h330l131 -700h-122l-43 228h-265l-42 -228h-120zM263 341h223l-45 246h-132z" />
    <glyph glyph-name="B" unicode="B" horiz-adv-x="765" 
d="M110 0v700h353q102 0 152 -47.5t50 -124.5q0 -104 -90 -149l27 -13q40 -20 51.5 -37.5t11.5 -55.5v-160q0 -59 -28.5 -86t-91.5 -27h-435zM230 113h296q19 0 19 19v124q0 20 -7.5 29t-29.5 19l-70 32l-208 -52v-171zM230 392l214 55q30 8 44.5 13t30 13.5t21.5 21t6 31.5
q0 61 -80 61h-236v-195z" />
    <glyph glyph-name="C" unicode="C" horiz-adv-x="735" 
d="M105 178v344q0 89 48.5 133.5t156.5 44.5h205q63 0 91.5 -27t28.5 -86v-75h-120v56q0 19 -19 19h-188q-50 0 -66.5 -17.5t-16.5 -63.5v-312q0 -46 16.5 -63.5t66.5 -17.5h188q19 0 19 19v116h120v-135q0 -59 -28.5 -86t-91.5 -27h-205q-108 0 -156.5 44.5t-48.5 133.5z
" />
    <glyph glyph-name="D" unicode="D" 
d="M110 0v700h350q108 0 156.5 -44.5t48.5 -133.5v-344q0 -89 -48.5 -133.5t-156.5 -44.5h-350zM230 113h232q50 0 66.5 17.5t16.5 63.5v312q0 46 -16.5 63.5t-66.5 17.5h-232v-474z" />
    <glyph glyph-name="E" unicode="E" horiz-adv-x="721" 
d="M110 0v700h521v-113h-401v-137h316v-113h-316v-224h400v-113h-520z" />
    <glyph glyph-name="F" unicode="F" horiz-adv-x="701" 
d="M110 0v700h521v-113h-401v-137h316v-113h-316v-337h-120z" />
    <glyph glyph-name="G" unicode="G" 
d="M105 178v344q0 89 48.5 133.5t156.5 44.5h235q63 0 91.5 -27t28.5 -86v-75h-120v56q0 19 -19 19h-218q-50 0 -66.5 -17.5t-16.5 -63.5v-312q0 -46 16.5 -63.5t66.5 -17.5h218q19 0 19 19v184h-155v113h275v-316q0 -59 -28.5 -86t-91.5 -27h-235q-108 0 -156.5 44.5
t-48.5 133.5z" />
    <glyph glyph-name="H" unicode="H" horiz-adv-x="790" 
d="M110 0v700h120v-250h330v250h120v-700h-120v337h-330v-337h-120z" />
    <glyph glyph-name="I" unicode="I" horiz-adv-x="360" 
d="M120 0v700h120v-700h-120z" />
    <glyph glyph-name="J" unicode="J" horiz-adv-x="658" 
d="M80 0v113h270q50 0 66.5 17.5t16.5 63.5v393h-300v113h420v-522q0 -89 -48.5 -133.5t-156.5 -44.5h-268z" />
    <glyph glyph-name="K" unicode="K" horiz-adv-x="730" 
d="M110 0v700h120v-329l286 329h145l-192 -220l211 -480h-131l-168 378l-151 -174v-204h-120z" />
    <glyph glyph-name="L" unicode="L" horiz-adv-x="665" 
d="M110 0v700h120v-587h385v-113h-505z" />
    <glyph glyph-name="M" unicode="M" horiz-adv-x="997" 
d="M110 0v700h156l233 -534l233 534h155v-700h-120v500l-220 -500h-97l-220 500v-500h-120z" />
    <glyph glyph-name="N" unicode="N" horiz-adv-x="820" 
d="M110 0v700h150l330 -312v312h120v-700h-120v230l-360 339v-569h-120z" />
    <glyph glyph-name="O" unicode="O" 
d="M110 113v474q0 59 28.5 86t91.5 27h310q63 0 91.5 -27t28.5 -86v-474q0 -59 -28.5 -86t-91.5 -27h-310q-63 0 -91.5 27t-28.5 86zM249 113h272q19 0 19 19v436q0 19 -19 19h-272q-19 0 -19 -19v-436q0 -19 19 -19z" />
    <glyph glyph-name="P" unicode="P" horiz-adv-x="725" 
d="M110 0v700h371q184 0 184 -153q0 -67 -33.5 -108t-95.5 -72l-306 -155v-212h-120zM230 337l242 122q24 12 37.5 21t25 24.5t11.5 33.5q0 49 -63 49h-253v-250z" />
    <glyph glyph-name="Q" unicode="Q" 
d="M110 113v474q0 59 28.5 86t91.5 27h310q63 0 91.5 -27t28.5 -86v-474q0 -98 -85 -111l55 -82h-135l-53 80h-212q-63 0 -91.5 27t-28.5 86zM249 113h118l-72 110h135l72 -110h19q19 0 19 19v436q0 19 -19 19h-272q-19 0 -19 -19v-436q0 -19 19 -19z" />
    <glyph glyph-name="R" unicode="R" horiz-adv-x="760" 
d="M110 0v700h371q184 0 184 -153q0 -104 -100 -164l97 -383h-126l-83 325l-223 -113v-212h-120zM230 337l242 122q24 12 37.5 21t25 24.5t11.5 33.5q0 49 -63 49h-253v-250z" />
    <glyph glyph-name="S" unicode="S" horiz-adv-x="765" 
d="M105 113v125h120v-106q0 -19 19 -19h272q19 0 19 19v143q0 13 -6 17.5t-26 8.5l-198 36q-101 18 -153 59.5t-52 122.5q0 84 51.5 132.5t155.5 48.5h228q63 0 91.5 -27t28.5 -86v-75h-120v56q0 19 -19 19h-213q-40 0 -61.5 -16.5t-21.5 -47.5q0 -34 26 -51t87 -28l213 -38
q61 -11 85 -30.5t24 -63.5v-199q0 -59 -28.5 -86t-91.5 -27h-310q-63 0 -91.5 27t-28.5 86z" />
    <glyph glyph-name="T" unicode="T" horiz-adv-x="722" 
d="M301 0v587h-251v113h622v-113h-251v-587h-120z" />
    <glyph glyph-name="U" unicode="U" 
d="M110 113v587h120v-568q0 -19 19 -19h272q19 0 19 19v568h120v-587q0 -59 -28.5 -86t-91.5 -27h-310q-63 0 -91.5 27t-28.5 86z" />
    <glyph glyph-name="V" unicode="V" horiz-adv-x="752" 
d="M211 0l-131 700h122l109 -587h131l109 587h121l-131 -700h-330z" />
    <glyph glyph-name="W" unicode="W" horiz-adv-x="1075" 
d="M193 0l-106 700h122l88 -587h51l131 587h117l131 -587h51l88 587h122l-106 -700h-245l-101 454l-100 -454h-243z" />
    <glyph glyph-name="X" unicode="X" horiz-adv-x="734" 
d="M45 0l246 363l-229 337h142l163 -243l166 243h140l-231 -333l247 -367h-141l-182 272l-183 -272h-138z" />
    <glyph glyph-name="Y" unicode="Y" horiz-adv-x="676" 
d="M277 0v271l-237 429h139l160 -301l159 301h138l-239 -431v-269h-120z" />
    <glyph glyph-name="Z" unicode="Z" horiz-adv-x="701" 
d="M90 0v113l374 474h-374v113h521v-113l-374 -474h373v-113h-520z" />
    <glyph glyph-name="bracketleft" unicode="[" horiz-adv-x="430" 
d="M110 -103v906h230v-103h-110v-700h110v-103h-230z" />
    <glyph glyph-name="backslash" unicode="\" horiz-adv-x="461" 
d="M291 0l-241 700h120l241 -700h-120z" />
    <glyph glyph-name="bracketright" unicode="]" horiz-adv-x="430" 
d="M90 -103v103h110v700h-110v103h230v-906h-230z" />
    <glyph glyph-name="asciicircum" unicode="^" horiz-adv-x="730" 
d="M108 324l200 376h113l201 -376h-113l-144 262l-144 -262h-113z" />
    <glyph glyph-name="underscore" unicode="_" horiz-adv-x="616" 
d="M-5 -161v108h626v-108h-626z" />
    <glyph glyph-name="grave" unicode="`" horiz-adv-x="600" 
d="M282 760l-82 130h129l69 -130h-116z" />
    <glyph glyph-name="a" unicode="a" horiz-adv-x="752" 
d="M80 0l131 700h330l131 -700h-122l-43 228h-265l-42 -228h-120zM263 341h223l-45 246h-132z" />
    <glyph glyph-name="b" unicode="b" horiz-adv-x="765" 
d="M110 0v700h353q102 0 152 -47.5t50 -124.5q0 -104 -90 -149l27 -13q40 -20 51.5 -37.5t11.5 -55.5v-160q0 -59 -28.5 -86t-91.5 -27h-435zM230 113h296q19 0 19 19v124q0 20 -7.5 29t-29.5 19l-70 32l-208 -52v-171zM230 392l214 55q30 8 44.5 13t30 13.5t21.5 21t6 31.5
q0 61 -80 61h-236v-195z" />
    <glyph glyph-name="c" unicode="c" horiz-adv-x="735" 
d="M105 178v344q0 89 48.5 133.5t156.5 44.5h205q63 0 91.5 -27t28.5 -86v-75h-120v56q0 19 -19 19h-188q-50 0 -66.5 -17.5t-16.5 -63.5v-312q0 -46 16.5 -63.5t66.5 -17.5h188q19 0 19 19v116h120v-135q0 -59 -28.5 -86t-91.5 -27h-205q-108 0 -156.5 44.5t-48.5 133.5z
" />
    <glyph glyph-name="d" unicode="d" 
d="M110 0v700h350q108 0 156.5 -44.5t48.5 -133.5v-344q0 -89 -48.5 -133.5t-156.5 -44.5h-350zM230 113h232q50 0 66.5 17.5t16.5 63.5v312q0 46 -16.5 63.5t-66.5 17.5h-232v-474z" />
    <glyph glyph-name="e" unicode="e" horiz-adv-x="721" 
d="M110 0v700h521v-113h-401v-137h316v-113h-316v-224h400v-113h-520z" />
    <glyph glyph-name="f" unicode="f" horiz-adv-x="701" 
d="M110 0v700h521v-113h-401v-137h316v-113h-316v-337h-120z" />
    <glyph glyph-name="g" unicode="g" 
d="M105 178v344q0 89 48.5 133.5t156.5 44.5h235q63 0 91.5 -27t28.5 -86v-75h-120v56q0 19 -19 19h-218q-50 0 -66.5 -17.5t-16.5 -63.5v-312q0 -46 16.5 -63.5t66.5 -17.5h218q19 0 19 19v184h-155v113h275v-316q0 -59 -28.5 -86t-91.5 -27h-235q-108 0 -156.5 44.5
t-48.5 133.5z" />
    <glyph glyph-name="h" unicode="h" horiz-adv-x="790" 
d="M110 0v700h120v-250h330v250h120v-700h-120v337h-330v-337h-120z" />
    <glyph glyph-name="i" unicode="i" horiz-adv-x="360" 
d="M120 0v700h120v-700h-120z" />
    <glyph glyph-name="j" unicode="j" horiz-adv-x="658" 
d="M80 0v113h270q50 0 66.5 17.5t16.5 63.5v393h-300v113h420v-522q0 -89 -48.5 -133.5t-156.5 -44.5h-268z" />
    <glyph glyph-name="k" unicode="k" horiz-adv-x="730" 
d="M110 0v700h120v-329l286 329h145l-192 -220l211 -480h-131l-168 378l-151 -174v-204h-120z" />
    <glyph glyph-name="l" unicode="l" horiz-adv-x="665" 
d="M110 0v700h120v-587h385v-113h-505z" />
    <glyph glyph-name="m" unicode="m" horiz-adv-x="997" 
d="M110 0v700h156l233 -534l233 534h155v-700h-120v500l-220 -500h-97l-220 500v-500h-120z" />
    <glyph glyph-name="n" unicode="n" horiz-adv-x="820" 
d="M110 0v700h150l330 -312v312h120v-700h-120v230l-360 339v-569h-120z" />
    <glyph glyph-name="o" unicode="o" 
d="M110 113v474q0 59 28.5 86t91.5 27h310q63 0 91.5 -27t28.5 -86v-474q0 -59 -28.5 -86t-91.5 -27h-310q-63 0 -91.5 27t-28.5 86zM249 113h272q19 0 19 19v436q0 19 -19 19h-272q-19 0 -19 -19v-436q0 -19 19 -19z" />
    <glyph glyph-name="p" unicode="p" horiz-adv-x="725" 
d="M110 0v700h371q184 0 184 -153q0 -67 -33.5 -108t-95.5 -72l-306 -155v-212h-120zM230 337l242 122q24 12 37.5 21t25 24.5t11.5 33.5q0 49 -63 49h-253v-250z" />
    <glyph glyph-name="q" unicode="q" 
d="M110 113v474q0 59 28.5 86t91.5 27h310q63 0 91.5 -27t28.5 -86v-474q0 -98 -85 -111l55 -82h-135l-53 80h-212q-63 0 -91.5 27t-28.5 86zM249 113h118l-72 110h135l72 -110h19q19 0 19 19v436q0 19 -19 19h-272q-19 0 -19 -19v-436q0 -19 19 -19z" />
    <glyph glyph-name="r" unicode="r" horiz-adv-x="760" 
d="M110 0v700h371q184 0 184 -153q0 -104 -100 -164l97 -383h-126l-83 325l-223 -113v-212h-120zM230 337l242 122q24 12 37.5 21t25 24.5t11.5 33.5q0 49 -63 49h-253v-250z" />
    <glyph glyph-name="s" unicode="s" horiz-adv-x="765" 
d="M105 113v125h120v-106q0 -19 19 -19h272q19 0 19 19v143q0 13 -6 17.5t-26 8.5l-198 36q-101 18 -153 59.5t-52 122.5q0 84 51.5 132.5t155.5 48.5h228q63 0 91.5 -27t28.5 -86v-75h-120v56q0 19 -19 19h-213q-40 0 -61.5 -16.5t-21.5 -47.5q0 -34 26 -51t87 -28l213 -38
q61 -11 85 -30.5t24 -63.5v-199q0 -59 -28.5 -86t-91.5 -27h-310q-63 0 -91.5 27t-28.5 86z" />
    <glyph glyph-name="t" unicode="t" horiz-adv-x="722" 
d="M301 0v587h-251v113h622v-113h-251v-587h-120z" />
    <glyph glyph-name="u" unicode="u" 
d="M110 113v587h120v-568q0 -19 19 -19h272q19 0 19 19v568h120v-587q0 -59 -28.5 -86t-91.5 -27h-310q-63 0 -91.5 27t-28.5 86z" />
    <glyph glyph-name="v" unicode="v" horiz-adv-x="752" 
d="M211 0l-131 700h122l109 -587h131l109 587h121l-131 -700h-330z" />
    <glyph glyph-name="w" unicode="w" horiz-adv-x="1075" 
d="M193 0l-106 700h122l88 -587h51l131 587h117l131 -587h51l88 587h122l-106 -700h-245l-101 454l-100 -454h-243z" />
    <glyph glyph-name="x" unicode="x" horiz-adv-x="734" 
d="M45 0l246 363l-229 337h142l163 -243l166 243h140l-231 -333l247 -367h-141l-182 272l-183 -272h-138z" />
    <glyph glyph-name="y" unicode="y" horiz-adv-x="676" 
d="M277 0v271l-237 429h139l160 -301l159 301h138l-239 -431v-269h-120z" />
    <glyph glyph-name="z" unicode="z" horiz-adv-x="701" 
d="M90 0v113l374 474h-374v113h521v-113l-374 -474h373v-113h-520z" />
    <glyph glyph-name="braceleft" unicode="{" horiz-adv-x="459" 
d="M159 75v144q0 34 -20.5 54.5t-59.5 20.5h-19v113h19q39 0 59.5 20.5t20.5 54.5v143q0 80 52.5 129t147.5 49h10v-103h-10q-39 0 -59.5 -20.5t-20.5 -54.5v-133q0 -94 -68 -142q68 -47 68 -141v-134q0 -34 20.5 -54.5t59.5 -20.5h10v-103h-10q-95 0 -147.5 49t-52.5 129z
" />
    <glyph glyph-name="bar" unicode="|" horiz-adv-x="453" 
d="M170 -103v906h113v-906h-113z" />
    <glyph glyph-name="braceright" unicode="}" horiz-adv-x="459" 
d="M90 -103v103h10q39 0 59.5 20.5t20.5 54.5v134q0 94 67 141q-67 49 -67 142v133q0 34 -20.5 54.5t-59.5 20.5h-10v103h10q95 0 147.5 -49t52.5 -129v-143q0 -34 20.5 -54.5t59.5 -20.5h19v-113h-19q-39 0 -59.5 -20.5t-20.5 -54.5v-144q0 -80 -52.5 -129t-147.5 -49h-10z
" />
    <glyph glyph-name="asciitilde" unicode="~" horiz-adv-x="730" 
d="M215 390l-105 22q7 50 47 82t93 32q55 0 126 -24.5t104 -24.5q44 0 44 38l96 -19q-8 -51 -43 -82.5t-87 -31.5q-59 0 -129 22.5t-102 22.5q-44 0 -44 -37z" />
    <glyph glyph-name="uni00A0" unicode="&#xa0;" horiz-adv-x="400" 
 />
    <glyph glyph-name="exclamdown" unicode="&#xa1;" horiz-adv-x="370" 
d="M125 0v490h120v-490h-120zM120 570v130h130v-130h-130z" />
    <glyph glyph-name="cent" unicode="&#xa2;" horiz-adv-x="730" 
d="M343 -83v83h-28q-108 0 -156.5 44.5t-48.5 133.5v260q0 89 48.5 133.5t156.5 44.5h28v84h73v-84h94q63 0 91.5 -27t28.5 -86v-75h-120v56q0 19 -19 19h-75v-390h75q19 0 19 19v116h120v-135q0 -59 -28.5 -86t-91.5 -27h-94v-83h-73zM313 113h30v390h-30
q-50 0 -66.5 -17.5t-16.5 -63.5v-228q0 -46 16.5 -63.5t66.5 -17.5z" />
    <glyph glyph-name="sterling" unicode="&#xa3;" horiz-adv-x="730" 
d="M70 0v103q39 0 59.5 20.5t20.5 54.5v135h-51v73h51v136q0 86 52 132t153 46h60q100 0 152.5 -46t52.5 -132v-11h-120q0 41 -19 58.5t-64 17.5h-64q-44 0 -63.5 -17t-19.5 -53v-131h255v-73h-255v-115q0 -48 -18 -85h403v-113h-585z" />
    <glyph glyph-name="currency" unicode="&#xa4;" 
d="M70 116l84 84q-14 34 -14 85v132q0 50 14 84l-84 84l80 80l86 -87q45 17 109 17h80q62 0 108 -16l87 87l80 -80l-85 -85q15 -36 15 -84v-132q0 -50 -15 -86l85 -84l-80 -80l-88 88q-42 -16 -107 -16h-80q-67 0 -108 16l-87 -87zM343 220h84q50 0 66.5 17.5t16.5 63.5v100
q0 46 -16.5 63.5t-66.5 17.5h-84q-50 0 -66.5 -17.5t-16.5 -63.5v-100q0 -46 16.5 -63.5t66.5 -17.5z" />
    <glyph glyph-name="yen" unicode="&#xa5;" horiz-adv-x="730" 
d="M305 0v248h-218v73h207l-30 55h-177v73h138l-137 251h139l140 -271l141 271h135l-137 -251h127v-73h-167l-30 -55h197v-73h-208v-248h-120z" />
    <glyph glyph-name="brokenbar" unicode="&#xa6;" horiz-adv-x="453" 
d="M170 -103v406h113v-406h-113zM170 397v406h113v-406h-113z" />
    <glyph glyph-name="section" unicode="&#xa7;" horiz-adv-x="775" 
d="M115 -30v125h120v-106q0 -19 19 -19h272q19 0 19 19v73q0 13 -6 17.5t-26 8.5l-198 36q-101 18 -153 59.5t-52 122.5q0 67 32 111q-32 40 -32 102q0 84 51.5 132.5t155.5 48.5h228q63 0 91.5 -27t28.5 -86v-75h-120v56q0 19 -19 19h-213q-40 0 -61.5 -16.5t-21.5 -47.5
q0 -34 26 -51t87 -28l213 -38q61 -11 85 -30.5t24 -63.5v-342q0 -59 -28.5 -86t-91.5 -27h-310q-63 0 -91.5 27t-28.5 86zM343 231l202 -36v80q0 13 -6 17.5t-26 8.5l-198 36q-38 6 -68 16q-17 -15 -17 -43q0 -34 26 -51t87 -28z" />
    <glyph glyph-name="dieresis" unicode="&#xa8;" horiz-adv-x="600" 
d="M119 770v115h120v-115h-120zM361 770v115h120v-115h-120z" />
    <glyph glyph-name="copyright" unicode="&#xa9;" horiz-adv-x="840" 
d="M60 350q0 150 104.5 255t255.5 105t255.5 -105t104.5 -255t-104.5 -255t-255.5 -105t-255.5 105t-104.5 255zM420 60q120 0 201 85t81 205t-81 205t-201 85t-201 -85t-81 -205t81 -205t201 -85zM253 247v206q0 53 29 80t94 27h123q38 0 55 -16.5t17 -51.5v-50h-72v34
q0 11 -11 11h-108q-30 0 -40 -10.5t-10 -37.5v-178q0 -27 10 -37.5t40 -10.5h108q11 0 11 11v65h72v-81q0 -35 -17 -51.5t-55 -16.5h-123q-65 0 -94 27t-29 80z" />
    <glyph glyph-name="guillemotleft" unicode="&#xab;" horiz-adv-x="786" 
d="M80 347l263 263l73 -74l-189 -189l189 -189l-73 -74zM350 347l263 263l73 -74l-189 -189l189 -189l-73 -74z" />
    <glyph glyph-name="uni00AD" unicode="&#xad;" horiz-adv-x="546" 
d="M90 307v113h366v-113h-366z" />
    <glyph glyph-name="registered" unicode="&#xae;" horiz-adv-x="520" 
d="M40 574q0 91 64 155.5t156 64.5t156 -64.5t64 -155.5t-64 -155.5t-156 -64.5t-156 64.5t-64 155.5zM260 395q74 0 124.5 52.5t50.5 126.5t-50.5 126.5t-124.5 52.5t-124.5 -52.5t-50.5 -126.5t50.5 -126.5t124.5 -52.5zM167 448v252h132q68 0 68 -55q0 -23 -9 -35
t-35 -27l43 -135h-48l-38 112l-67 -34v-78h-46zM213 574l74 38q34 16 34 30t-24 14h-84v-82z" />
    <glyph glyph-name="macron" unicode="&#xaf;" horiz-adv-x="600" 
d="M130 783v92h340v-92h-340z" />
    <glyph glyph-name="degree" unicode="&#xb0;" horiz-adv-x="467" 
d="M90 606q0 59 42 101.5t101 42.5t101.5 -42.5t42.5 -101.5t-42.5 -101t-101.5 -42t-101 42t-42 101zM156 606q0 -32 22.5 -54.5t54.5 -22.5t54.5 22.5t22.5 54.5t-22.5 54.5t-54.5 22.5t-54.5 -22.5t-22.5 -54.5z" />
    <glyph glyph-name="plusminus" unicode="&#xb1;" horiz-adv-x="756" 
d="M90 376v113h231v191h113v-191h232v-113h-232v-192h-113v192h-231zM90 20v113h576v-113h-576z" />
    <glyph glyph-name="two.superior" unicode="&#xb2;" horiz-adv-x="468" 
d="M70 280v62l181 161q4 3 13 11t13 12l11 11q8 8 12 13t8 12t6 13.5t2 13.5q0 33 -47 33h-70q-48 0 -48 -32v-29h-81v39q0 45 30.5 72.5t90.5 27.5h86q60 0 90.5 -31.5t30.5 -78.5q0 -17 -4 -32.5t-9 -26t-16 -23.5t-18 -19l-23 -20l-23 -20l-103 -91h196v-78h-328z" />
    <glyph glyph-name="three.superior" unicode="&#xb3;" horiz-adv-x="446" 
d="M70 280v78h213q11 0 11 11v30q0 13 -2.5 16.5t-14.5 8.5l-109 46v71l108 81h-200v78h300v-89l-126 -94l88 -35q24 -10 31 -22t7 -36v-92q0 -52 -52 -52h-254z" />
    <glyph glyph-name="acute" unicode="&#xb4;" horiz-adv-x="600" 
d="M202 760l69 130h129l-82 -130h-116z" />
    <glyph glyph-name="paragraph" unicode="&#xb6;" horiz-adv-x="812" 
d="M582 -143v843h120v-843h-120zM390 -143v355l-180 118q-48 32 -74.5 55t-46 60t-19.5 84q0 77 51.5 124t149.5 47h239v-843h-120z" />
    <glyph glyph-name="periodcentered" unicode="&#xb7;" horiz-adv-x="410" 
d="M140 296v130h130v-130h-130z" />
    <glyph glyph-name="cedilla" unicode="&#xb8;" horiz-adv-x="600" 
d="M195 -212l13 69h84q37 0 37 26q0 25 -37 25h-75l18 94h69l-7 -33q71 -2 93 -23.5t22 -60.5q0 -46 -30.5 -71.5t-83.5 -25.5h-103z" />
    <glyph glyph-name="one.superior" unicode="&#xb9;" horiz-adv-x="396" 
d="M199 280v324l-77 -66l-52 58l116 104h100v-420h-87z" />
    <glyph glyph-name="guillemotright" unicode="&#xbb;" horiz-adv-x="786" 
d="M443 84l-73 74l189 189l-189 189l73 74l263 -263zM173 84l-73 74l189 189l-189 189l73 74l263 -263z" />
    <glyph glyph-name="onequarter" unicode="&#xbc;" horiz-adv-x="1005" 
d="M599 101v62l113 257h87l-107 -241h129v157h82v-157h42v-78h-42v-101h-82v101h-222zM214 0l458 700h103l-458 -700h-103zM199 280v324l-77 -66l-52 58l116 104h100v-420h-87z" />
    <glyph glyph-name="onehalf" unicode="&#xbd;" horiz-adv-x="1047" 
d="M649 0v62l181 161q4 3 13 11t13 12l12 11q7 8 11 13t8 12t6 13.5t2 13.5q0 33 -47 33h-70q-48 0 -48 -32v-29h-81v39q0 45 30.5 72.5t90.5 27.5h86q60 0 90.5 -31.5t30.5 -78.5q0 -17 -4 -32.5t-9 -26t-16 -23.5t-18 -19l-23 -20l-23 -20l-103 -91h196v-78h-328zM214 0
l458 700h103l-458 -700h-103zM199 280v324l-77 -66l-52 58l116 104h100v-420h-87z" />
    <glyph glyph-name="threequarters" unicode="&#xbe;" horiz-adv-x="1035" 
d="M619 101v62l113 257h87l-107 -241h129v157h82v-157h42v-78h-42v-101h-82v101h-222zM60 280v78h213q11 0 11 11v30q0 13 -2.5 16.5t-14.5 8.5l-109 46v71l108 81h-200v78h300v-89l-126 -94l88 -35q24 -10 31 -22t7 -36v-92q0 -52 -52 -52h-254zM234 0l458 700h103
l-458 -700h-103z" />
    <glyph glyph-name="questiondown" unicode="&#xbf;" horiz-adv-x="617" 
d="M258 113h259v-113h-258q-93 0 -141 41.5t-48 121.5q0 66 36 108t100 75l118 60q18 9 18 29v55h120v-101q0 -24 -8 -35t-32 -23l-131 -66q-55 -28 -78.5 -48t-23.5 -50q0 -54 69 -54zM337 570v130h130v-130h-130z" />
    <glyph glyph-name="Agrave" unicode="&#xc0;" horiz-adv-x="752" 
d="M80 0l131 700h330l131 -700h-122l-43 228h-265l-42 -228h-120zM263 341h223l-45 246h-132zM328 760l-82 130h129l69 -130h-116z" />
    <glyph glyph-name="Aacute" unicode="&#xc1;" horiz-adv-x="752" 
d="M80 0l131 700h330l131 -700h-122l-43 228h-265l-42 -228h-120zM263 341h223l-45 246h-132zM308 760l69 130h129l-82 -130h-116z" />
    <glyph glyph-name="Acircumflex" unicode="&#xc2;" horiz-adv-x="752" 
d="M80 0l131 700h330l131 -700h-122l-43 228h-265l-42 -228h-120zM263 341h223l-45 246h-132zM196 760l94 130h172l94 -130h-113l-67 83l-67 -83h-113z" />
    <glyph glyph-name="Atilde" unicode="&#xc3;" horiz-adv-x="752" 
d="M80 0l131 700h330l131 -700h-122l-43 228h-265l-42 -228h-120zM263 341h223l-45 246h-132zM194 763q16 125 107 125q44 0 85.5 -25t57.5 -25q15 0 23.5 10t12.5 37h78q-13 -125 -109 -125q-45 0 -85 24t-56 24q-15 0 -24 -9.5t-13 -35.5h-77z" />
    <glyph glyph-name="Adieresis" unicode="&#xc4;" horiz-adv-x="752" 
d="M80 0l131 700h330l131 -700h-122l-43 228h-265l-42 -228h-120zM263 341h223l-45 246h-132zM195 770v115h120v-115h-120zM437 770v115h120v-115h-120z" />
    <glyph glyph-name="Aring" unicode="&#xc5;" horiz-adv-x="752" 
d="M80 0l131 700h58q-28 34 -28 83q0 56 38.5 95t95.5 39t96 -39t39 -95q0 -48 -29 -83h60l131 -700h-122l-43 228h-265l-42 -228h-120zM263 341h223l-45 246h-132zM375 713q30 0 49.5 20t19.5 50t-19.5 50t-49.5 20t-49.5 -20t-19.5 -50q0 -29 20 -49.5t49 -20.5z" />
    <glyph glyph-name="AE" unicode="&#xc6;" horiz-adv-x="1083" 
d="M80 0l130 700h783v-113h-391v-137h306v-113h-306v-224h390v-113h-510v228h-240l-42 -228h-120zM263 341h219v246h-174z" />
    <glyph glyph-name="Ccedilla" unicode="&#xc7;" horiz-adv-x="735" 
d="M296 -212l13 69h84q37 0 37 26q0 25 -37 25h-75l17 92h-25q-108 0 -156.5 44.5t-48.5 133.5v344q0 89 48.5 133.5t156.5 44.5h205q63 0 91.5 -27t28.5 -86v-75h-120v56q0 19 -19 19h-188q-50 0 -66.5 -17.5t-16.5 -63.5v-312q0 -46 16.5 -63.5t66.5 -17.5h188q19 0 19 19
v116h120v-135q0 -59 -28.5 -86t-91.5 -27h-111l-6 -31q71 -2 93 -23.5t22 -60.5q0 -46 -30.5 -71.5t-83.5 -25.5h-103z" />
    <glyph glyph-name="Egrave" unicode="&#xc8;" horiz-adv-x="721" 
d="M110 0v700h521v-113h-401v-137h316v-113h-316v-224h400v-113h-520zM332 760l-82 130h129l69 -130h-116z" />
    <glyph glyph-name="Eacute" unicode="&#xc9;" horiz-adv-x="721" 
d="M110 0v700h521v-113h-401v-137h316v-113h-316v-224h400v-113h-520zM307 760l69 130h129l-82 -130h-116z" />
    <glyph glyph-name="Ecircumflex" unicode="&#xca;" horiz-adv-x="721" 
d="M110 0v700h521v-113h-401v-137h316v-113h-316v-224h400v-113h-520zM185 760l94 130h172l94 -130h-113l-67 83l-67 -83h-113z" />
    <glyph glyph-name="Edieresis" unicode="&#xcb;" horiz-adv-x="721" 
d="M110 0v700h521v-113h-401v-137h316v-113h-316v-224h400v-113h-520zM189 770v115h120v-115h-120zM431 770v115h120v-115h-120z" />
    <glyph glyph-name="Igrave" unicode="&#xcc;" horiz-adv-x="360" 
d="M120 0v700h120v-700h-120zM124 760l-82 130h129l69 -130h-116z" />
    <glyph glyph-name="Iacute" unicode="&#xcd;" horiz-adv-x="360" 
d="M120 0v700h120v-700h-120zM120 760l69 130h129l-82 -130h-116z" />
    <glyph glyph-name="Icircumflex" unicode="&#xce;" horiz-adv-x="360" 
d="M120 0v700h120v-700h-120zM0 760l94 130h172l94 -130h-113l-67 83l-67 -83h-113z" />
    <glyph glyph-name="Idieresis" unicode="&#xcf;" horiz-adv-x="360" 
d="M120 0v700h120v-700h-120zM-1 770v115h120v-115h-120zM241 770v115h120v-115h-120z" />
    <glyph glyph-name="Eth" unicode="&#xd0;" horiz-adv-x="790" 
d="M130 0v315h-75v102h75v283h350q108 0 156.5 -44.5t48.5 -133.5v-344q0 -89 -48.5 -133.5t-156.5 -44.5h-350zM250 113h232q50 0 66.5 17.5t16.5 63.5v312q0 46 -16.5 63.5t-66.5 17.5h-232v-170h175v-102h-175v-202z" />
    <glyph glyph-name="Ntilde" unicode="&#xd1;" horiz-adv-x="820" 
d="M110 0v700h150l330 -312v312h120v-700h-120v230l-360 339v-569h-120zM228 763q16 125 107 125q44 0 85.5 -25t57.5 -25q15 0 23.5 10t12.5 37h78q-13 -125 -109 -125q-45 0 -85 24t-56 24q-15 0 -24 -9.5t-13 -35.5h-77z" />
    <glyph glyph-name="Ograve" unicode="&#xd2;" 
d="M110 113v474q0 59 28.5 86t91.5 27h310q63 0 91.5 -27t28.5 -86v-474q0 -59 -28.5 -86t-91.5 -27h-310q-63 0 -91.5 27t-28.5 86zM249 113h272q19 0 19 19v436q0 19 -19 19h-272q-19 0 -19 -19v-436q0 -19 19 -19zM327 760l-82 130h129l69 -130h-116z" />
    <glyph glyph-name="Oacute" unicode="&#xd3;" 
d="M110 113v474q0 59 28.5 86t91.5 27h310q63 0 91.5 -27t28.5 -86v-474q0 -59 -28.5 -86t-91.5 -27h-310q-63 0 -91.5 27t-28.5 86zM249 113h272q19 0 19 19v436q0 19 -19 19h-272q-19 0 -19 -19v-436q0 -19 19 -19zM327 760l69 130h129l-82 -130h-116z" />
    <glyph glyph-name="Ocircumflex" unicode="&#xd4;" 
d="M110 113v474q0 59 28.5 86t91.5 27h310q63 0 91.5 -27t28.5 -86v-474q0 -59 -28.5 -86t-91.5 -27h-310q-63 0 -91.5 27t-28.5 86zM249 113h272q19 0 19 19v436q0 19 -19 19h-272q-19 0 -19 -19v-436q0 -19 19 -19zM205 760l94 130h172l94 -130h-113l-67 83l-67 -83h-113z
" />
    <glyph glyph-name="Otilde" unicode="&#xd5;" 
d="M110 113v474q0 59 28.5 86t91.5 27h310q63 0 91.5 -27t28.5 -86v-474q0 -59 -28.5 -86t-91.5 -27h-310q-63 0 -91.5 27t-28.5 86zM249 113h272q19 0 19 19v436q0 19 -19 19h-272q-19 0 -19 -19v-436q0 -19 19 -19zM203 763q16 125 107 125q44 0 85.5 -25t57.5 -25
q15 0 23.5 10t12.5 37h78q-13 -125 -109 -125q-45 0 -85 24t-56 24q-15 0 -24 -9.5t-13 -35.5h-77z" />
    <glyph glyph-name="Odieresis" unicode="&#xd6;" 
d="M110 113v474q0 59 28.5 86t91.5 27h310q63 0 91.5 -27t28.5 -86v-474q0 -59 -28.5 -86t-91.5 -27h-310q-63 0 -91.5 27t-28.5 86zM249 113h272q19 0 19 19v436q0 19 -19 19h-272q-19 0 -19 -19v-436q0 -19 19 -19zM204 770v115h120v-115h-120zM446 770v115h120v-115h-120
z" />
    <glyph glyph-name="multiply" unicode="&#xd7;" horiz-adv-x="756" 
d="M114 164l183 183l-183 183l80 80l183 -183l184 184l80 -80l-184 -184l184 -184l-80 -80l-184 184l-183 -183z" />
    <glyph glyph-name="Oslash" unicode="&#xd8;" horiz-adv-x="790" 
d="M120 -50l36 64q-46 24 -46 99v474q0 59 28.5 86t91.5 27h311l28 50h100l-36 -64q47 -25 47 -99v-474q0 -59 -28.5 -86t-91.5 -27h-312l-28 -50h-100zM311 113h230q19 0 19 19v424zM230 146l247 441h-228q-19 0 -19 -19v-422z" />
    <glyph glyph-name="Ugrave" unicode="&#xd9;" 
d="M110 113v587h120v-568q0 -19 19 -19h272q19 0 19 19v568h120v-587q0 -59 -28.5 -86t-91.5 -27h-310q-63 0 -91.5 27t-28.5 86zM338 760l-82 130h129l69 -130h-116z" />
    <glyph glyph-name="Uacute" unicode="&#xda;" 
d="M110 113v587h120v-568q0 -19 19 -19h272q19 0 19 19v568h120v-587q0 -59 -28.5 -86t-91.5 -27h-310q-63 0 -91.5 27t-28.5 86zM316 760l69 130h129l-82 -130h-116z" />
    <glyph glyph-name="Ucircumflex" unicode="&#xdb;" 
d="M110 113v587h120v-568q0 -19 19 -19h272q19 0 19 19v568h120v-587q0 -59 -28.5 -86t-91.5 -27h-310q-63 0 -91.5 27t-28.5 86zM205 760l94 130h172l94 -130h-113l-67 83l-67 -83h-113z" />
    <glyph glyph-name="Udieresis" unicode="&#xdc;" 
d="M110 113v587h120v-568q0 -19 19 -19h272q19 0 19 19v568h120v-587q0 -59 -28.5 -86t-91.5 -27h-310q-63 0 -91.5 27t-28.5 86zM204 770v115h120v-115h-120zM446 770v115h120v-115h-120z" />
    <glyph glyph-name="Yacute" unicode="&#xdd;" horiz-adv-x="676" 
d="M277 0v271l-237 429h139l160 -301l159 301h138l-239 -431v-269h-120zM268 760l69 130h129l-82 -130h-116z" />
    <glyph glyph-name="Thorn" unicode="&#xde;" horiz-adv-x="735" 
d="M110 0v700h120v-113h251q184 0 184 -153q0 -67 -33.5 -108t-95.5 -72l-306 -155v-99h-120zM230 224l242 122q24 12 37.5 21t25 24.5t11.5 33.5q0 49 -63 49h-253v-250z" />
    <glyph glyph-name="germandbls" unicode="&#xdf;" horiz-adv-x="1520" 
d="M105 113v125h120v-106q0 -19 19 -19h272q19 0 19 19v143q0 13 -6 17.5t-26 8.5l-198 36q-101 18 -153 59.5t-52 122.5q0 84 51.5 132.5t155.5 48.5h228q63 0 91.5 -27t28.5 -86v-75h-120v56q0 19 -19 19h-213q-40 0 -61.5 -16.5t-21.5 -47.5q0 -34 26 -51t87 -28l213 -38
q61 -11 85 -30.5t24 -63.5v-199q0 -59 -28.5 -86t-91.5 -27h-310q-63 0 -91.5 27t-28.5 86zM860 113v125h120v-106q0 -19 19 -19h272q19 0 19 19v143q0 13 -6 17.5t-26 8.5l-198 36q-101 18 -153 59.5t-52 122.5q0 84 51.5 132.5t155.5 48.5h228q63 0 91.5 -27t28.5 -86v-75
h-120v56q0 19 -19 19h-213q-40 0 -61.5 -16.5t-21.5 -47.5q0 -34 26 -51t87 -28l213 -38q61 -11 85 -30.5t24 -63.5v-199q0 -59 -28.5 -86t-91.5 -27h-310q-63 0 -91.5 27t-28.5 86z" />
    <glyph glyph-name="agrave" unicode="&#xe0;" horiz-adv-x="752" 
d="M80 0l131 700h330l131 -700h-122l-43 228h-265l-42 -228h-120zM263 341h223l-45 246h-132zM328 760l-82 130h129l69 -130h-116z" />
    <glyph glyph-name="aacute" unicode="&#xe1;" horiz-adv-x="752" 
d="M80 0l131 700h330l131 -700h-122l-43 228h-265l-42 -228h-120zM263 341h223l-45 246h-132zM308 760l69 130h129l-82 -130h-116z" />
    <glyph glyph-name="acircumflex" unicode="&#xe2;" horiz-adv-x="752" 
d="M80 0l131 700h330l131 -700h-122l-43 228h-265l-42 -228h-120zM263 341h223l-45 246h-132zM196 760l94 130h172l94 -130h-113l-67 83l-67 -83h-113z" />
    <glyph glyph-name="atilde" unicode="&#xe3;" horiz-adv-x="752" 
d="M80 0l131 700h330l131 -700h-122l-43 228h-265l-42 -228h-120zM263 341h223l-45 246h-132zM194 763q16 125 107 125q44 0 85.5 -25t57.5 -25q15 0 23.5 10t12.5 37h78q-13 -125 -109 -125q-45 0 -85 24t-56 24q-15 0 -24 -9.5t-13 -35.5h-77z" />
    <glyph glyph-name="adieresis" unicode="&#xe4;" horiz-adv-x="752" 
d="M80 0l131 700h330l131 -700h-122l-43 228h-265l-42 -228h-120zM263 341h223l-45 246h-132zM195 770v115h120v-115h-120zM437 770v115h120v-115h-120z" />
    <glyph glyph-name="aring" unicode="&#xe5;" horiz-adv-x="752" 
d="M80 0l131 700h58q-28 34 -28 83q0 56 38.5 95t95.5 39t96 -39t39 -95q0 -48 -29 -83h60l131 -700h-122l-43 228h-265l-42 -228h-120zM263 341h223l-45 246h-132zM375 713q30 0 49.5 20t19.5 50t-19.5 50t-49.5 20t-49.5 -20t-19.5 -50q0 -29 20 -49.5t49 -20.5z" />
    <glyph glyph-name="ae" unicode="&#xe6;" horiz-adv-x="1083" 
d="M80 0l130 700h783v-113h-391v-137h306v-113h-306v-224h390v-113h-510v228h-240l-42 -228h-120zM263 341h219v246h-174z" />
    <glyph glyph-name="ccedilla" unicode="&#xe7;" horiz-adv-x="735" 
d="M296 -212l13 69h84q37 0 37 26q0 25 -37 25h-75l17 92h-25q-108 0 -156.5 44.5t-48.5 133.5v344q0 89 48.5 133.5t156.5 44.5h205q63 0 91.5 -27t28.5 -86v-75h-120v56q0 19 -19 19h-188q-50 0 -66.5 -17.5t-16.5 -63.5v-312q0 -46 16.5 -63.5t66.5 -17.5h188q19 0 19 19
v116h120v-135q0 -59 -28.5 -86t-91.5 -27h-111l-6 -31q71 -2 93 -23.5t22 -60.5q0 -46 -30.5 -71.5t-83.5 -25.5h-103z" />
    <glyph glyph-name="egrave" unicode="&#xe8;" horiz-adv-x="721" 
d="M110 0v700h521v-113h-401v-137h316v-113h-316v-224h400v-113h-520zM332 760l-82 130h129l69 -130h-116z" />
    <glyph glyph-name="eacute" unicode="&#xe9;" horiz-adv-x="721" 
d="M110 0v700h521v-113h-401v-137h316v-113h-316v-224h400v-113h-520zM307 760l69 130h129l-82 -130h-116z" />
    <glyph glyph-name="ecircumflex" unicode="&#xea;" horiz-adv-x="721" 
d="M110 0v700h521v-113h-401v-137h316v-113h-316v-224h400v-113h-520zM185 760l94 130h172l94 -130h-113l-67 83l-67 -83h-113z" />
    <glyph glyph-name="edieresis" unicode="&#xeb;" horiz-adv-x="721" 
d="M110 0v700h521v-113h-401v-137h316v-113h-316v-224h400v-113h-520zM189 770v115h120v-115h-120zM431 770v115h120v-115h-120z" />
    <glyph glyph-name="igrave" unicode="&#xec;" horiz-adv-x="360" 
d="M120 0v700h120v-700h-120zM124 760l-82 130h129l69 -130h-116z" />
    <glyph glyph-name="iacute" unicode="&#xed;" horiz-adv-x="360" 
d="M120 0v700h120v-700h-120zM120 760l69 130h129l-82 -130h-116z" />
    <glyph glyph-name="icircumflex" unicode="&#xee;" horiz-adv-x="360" 
d="M120 0v700h120v-700h-120zM0 760l94 130h172l94 -130h-113l-67 83l-67 -83h-113z" />
    <glyph glyph-name="idieresis" unicode="&#xef;" horiz-adv-x="360" 
d="M120 0v700h120v-700h-120zM-1 770v115h120v-115h-120zM241 770v115h120v-115h-120z" />
    <glyph glyph-name="eth" unicode="&#xf0;" horiz-adv-x="790" 
d="M130 0v315h-75v102h75v283h350q108 0 156.5 -44.5t48.5 -133.5v-344q0 -89 -48.5 -133.5t-156.5 -44.5h-350zM250 113h232q50 0 66.5 17.5t16.5 63.5v312q0 46 -16.5 63.5t-66.5 17.5h-232v-170h175v-102h-175v-202z" />
    <glyph glyph-name="ntilde" unicode="&#xf1;" horiz-adv-x="820" 
d="M110 0v700h150l330 -312v312h120v-700h-120v230l-360 339v-569h-120zM228 763q16 125 107 125q44 0 85.5 -25t57.5 -25q15 0 23.5 10t12.5 37h78q-13 -125 -109 -125q-45 0 -85 24t-56 24q-15 0 -24 -9.5t-13 -35.5h-77z" />
    <glyph glyph-name="ograve" unicode="&#xf2;" 
d="M110 113v474q0 59 28.5 86t91.5 27h310q63 0 91.5 -27t28.5 -86v-474q0 -59 -28.5 -86t-91.5 -27h-310q-63 0 -91.5 27t-28.5 86zM249 113h272q19 0 19 19v436q0 19 -19 19h-272q-19 0 -19 -19v-436q0 -19 19 -19zM327 760l-82 130h129l69 -130h-116z" />
    <glyph glyph-name="oacute" unicode="&#xf3;" 
d="M110 113v474q0 59 28.5 86t91.5 27h310q63 0 91.5 -27t28.5 -86v-474q0 -59 -28.5 -86t-91.5 -27h-310q-63 0 -91.5 27t-28.5 86zM249 113h272q19 0 19 19v436q0 19 -19 19h-272q-19 0 -19 -19v-436q0 -19 19 -19zM327 760l69 130h129l-82 -130h-116z" />
    <glyph glyph-name="ocircumflex" unicode="&#xf4;" 
d="M110 113v474q0 59 28.5 86t91.5 27h310q63 0 91.5 -27t28.5 -86v-474q0 -59 -28.5 -86t-91.5 -27h-310q-63 0 -91.5 27t-28.5 86zM249 113h272q19 0 19 19v436q0 19 -19 19h-272q-19 0 -19 -19v-436q0 -19 19 -19zM205 760l94 130h172l94 -130h-113l-67 83l-67 -83h-113z
" />
    <glyph glyph-name="otilde" unicode="&#xf5;" 
d="M110 113v474q0 59 28.5 86t91.5 27h310q63 0 91.5 -27t28.5 -86v-474q0 -59 -28.5 -86t-91.5 -27h-310q-63 0 -91.5 27t-28.5 86zM249 113h272q19 0 19 19v436q0 19 -19 19h-272q-19 0 -19 -19v-436q0 -19 19 -19zM203 763q16 125 107 125q44 0 85.5 -25t57.5 -25
q15 0 23.5 10t12.5 37h78q-13 -125 -109 -125q-45 0 -85 24t-56 24q-15 0 -24 -9.5t-13 -35.5h-77z" />
    <glyph glyph-name="odieresis" unicode="&#xf6;" 
d="M110 113v474q0 59 28.5 86t91.5 27h310q63 0 91.5 -27t28.5 -86v-474q0 -59 -28.5 -86t-91.5 -27h-310q-63 0 -91.5 27t-28.5 86zM249 113h272q19 0 19 19v436q0 19 -19 19h-272q-19 0 -19 -19v-436q0 -19 19 -19zM204 770v115h120v-115h-120zM446 770v115h120v-115h-120
z" />
    <glyph glyph-name="divide" unicode="&#xf7;" horiz-adv-x="756" 
d="M313 71v130h130v-130h-130zM313 494v130h130v-130h-130zM90 291v113h576v-113h-576z" />
    <glyph glyph-name="oslash" unicode="&#xf8;" horiz-adv-x="790" 
d="M120 -50l36 64q-46 24 -46 99v474q0 59 28.5 86t91.5 27h311l28 50h100l-36 -64q47 -25 47 -99v-474q0 -59 -28.5 -86t-91.5 -27h-312l-28 -50h-100zM311 113h230q19 0 19 19v424zM230 146l247 441h-228q-19 0 -19 -19v-422z" />
    <glyph glyph-name="ugrave" unicode="&#xf9;" 
d="M110 113v587h120v-568q0 -19 19 -19h272q19 0 19 19v568h120v-587q0 -59 -28.5 -86t-91.5 -27h-310q-63 0 -91.5 27t-28.5 86zM338 760l-82 130h129l69 -130h-116z" />
    <glyph glyph-name="uacute" unicode="&#xfa;" 
d="M110 113v587h120v-568q0 -19 19 -19h272q19 0 19 19v568h120v-587q0 -59 -28.5 -86t-91.5 -27h-310q-63 0 -91.5 27t-28.5 86zM316 760l69 130h129l-82 -130h-116z" />
    <glyph glyph-name="ucircumflex" unicode="&#xfb;" 
d="M110 113v587h120v-568q0 -19 19 -19h272q19 0 19 19v568h120v-587q0 -59 -28.5 -86t-91.5 -27h-310q-63 0 -91.5 27t-28.5 86zM205 760l94 130h172l94 -130h-113l-67 83l-67 -83h-113z" />
    <glyph glyph-name="udieresis" unicode="&#xfc;" 
d="M110 113v587h120v-568q0 -19 19 -19h272q19 0 19 19v568h120v-587q0 -59 -28.5 -86t-91.5 -27h-310q-63 0 -91.5 27t-28.5 86zM204 770v115h120v-115h-120zM446 770v115h120v-115h-120z" />
    <glyph glyph-name="yacute" unicode="&#xfd;" horiz-adv-x="676" 
d="M321 0v271l-237 429h139l160 -301l159 301h138l-239 -431v-269h-120zM312 760l69 130h129l-82 -130h-116z" />
    <glyph glyph-name="thorn" unicode="&#xfe;" horiz-adv-x="735" 
d="M110 0v700h120v-113h251q184 0 184 -153q0 -67 -33.5 -108t-95.5 -72l-306 -155v-99h-120zM230 224l242 122q24 12 37.5 21t25 24.5t11.5 33.5q0 49 -63 49h-253v-250z" />
    <glyph glyph-name="ydieresis" unicode="&#xff;" horiz-adv-x="676" 
d="M277 0v271l-237 429h139l160 -301l159 301h138l-239 -431v-269h-120zM156 770v115h120v-115h-120zM398 770v115h120v-115h-120z" />
    <glyph glyph-name="Amacron" unicode="&#x100;" horiz-adv-x="752" 
d="M80 0l131 700h330l131 -700h-122l-43 228h-265l-42 -228h-120zM263 341h223l-45 246h-132zM206 783v92h340v-92h-340z" />
    <glyph glyph-name="amacron" unicode="&#x101;" horiz-adv-x="752" 
d="M80 0l131 700h330l131 -700h-122l-43 228h-265l-42 -228h-120zM263 341h223l-45 246h-132zM206 783v92h340v-92h-340z" />
    <glyph glyph-name="Abreve" unicode="&#x102;" horiz-adv-x="752" 
d="M80 0l131 700h330l131 -700h-122l-43 228h-265l-42 -228h-120zM263 341h223l-45 246h-132zM212 899h89q0 -33 18 -53.5t54 -20.5t54.5 21t18.5 53h87q0 -69 -46 -107.5t-113 -38.5t-114.5 38.5t-47.5 107.5z" />
    <glyph glyph-name="abreve" unicode="&#x103;" horiz-adv-x="752" 
d="M80 0l131 700h330l131 -700h-122l-43 228h-265l-42 -228h-120zM263 341h223l-45 246h-132zM212 899h89q0 -33 18 -53.5t54 -20.5t54.5 21t18.5 53h87q0 -69 -46 -107.5t-113 -38.5t-114.5 38.5t-47.5 107.5z" />
    <glyph glyph-name="Aogonek" unicode="&#x104;" horiz-adv-x="752" 
d="M80 0l131 700h330l131 -700l-55 -54q-29 -29 -29 -48q0 -27 38 -27h46v-83h-70q-55 0 -83 25.5t-28 64.5q0 49 49 93l32 29h-22l-43 228h-265l-42 -228h-120zM263 341h223l-45 246h-132z" />
    <glyph glyph-name="aogonek" unicode="&#x105;" horiz-adv-x="752" 
d="M80 0l131 700h330l131 -700l-55 -54q-29 -29 -29 -48q0 -27 38 -27h46v-83h-70q-55 0 -83 25.5t-28 64.5q0 49 49 93l32 29h-22l-43 228h-265l-42 -228h-120zM263 341h223l-45 246h-132z" />
    <glyph glyph-name="Cacute" unicode="&#x106;" horiz-adv-x="735" 
d="M105 178v344q0 89 48.5 133.5t156.5 44.5h205q63 0 91.5 -27t28.5 -86v-75h-120v56q0 19 -19 19h-188q-50 0 -66.5 -17.5t-16.5 -63.5v-312q0 -46 16.5 -63.5t66.5 -17.5h188q19 0 19 19v116h120v-135q0 -59 -28.5 -86t-91.5 -27h-205q-108 0 -156.5 44.5t-48.5 133.5z
M331 760l69 130h129l-82 -130h-116z" />
    <glyph glyph-name="cacute" unicode="&#x107;" horiz-adv-x="735" 
d="M105 178v344q0 89 48.5 133.5t156.5 44.5h205q63 0 91.5 -27t28.5 -86v-75h-120v56q0 19 -19 19h-188q-50 0 -66.5 -17.5t-16.5 -63.5v-312q0 -46 16.5 -63.5t66.5 -17.5h188q19 0 19 19v116h120v-135q0 -59 -28.5 -86t-91.5 -27h-205q-108 0 -156.5 44.5t-48.5 133.5z
M331 760l69 130h129l-82 -130h-116z" />
    <glyph glyph-name="Ccircumflex" unicode="&#x108;" horiz-adv-x="735" 
d="M105 178v344q0 89 48.5 133.5t156.5 44.5h205q63 0 91.5 -27t28.5 -86v-75h-120v56q0 19 -19 19h-188q-50 0 -66.5 -17.5t-16.5 -63.5v-312q0 -46 16.5 -63.5t66.5 -17.5h188q19 0 19 19v116h120v-135q0 -59 -28.5 -86t-91.5 -27h-205q-108 0 -156.5 44.5t-48.5 133.5z
M209 760l94 130h172l94 -130h-113l-67 83l-67 -83h-113z" />
    <glyph glyph-name="ccircumflex" unicode="&#x109;" horiz-adv-x="735" 
d="M105 178v344q0 89 48.5 133.5t156.5 44.5h205q63 0 91.5 -27t28.5 -86v-75h-120v56q0 19 -19 19h-188q-50 0 -66.5 -17.5t-16.5 -63.5v-312q0 -46 16.5 -63.5t66.5 -17.5h188q19 0 19 19v116h120v-135q0 -59 -28.5 -86t-91.5 -27h-205q-108 0 -156.5 44.5t-48.5 133.5z
M209 760l94 130h172l94 -130h-113l-67 83l-67 -83h-113z" />
    <glyph glyph-name="Cdotaccent" unicode="&#x10a;" horiz-adv-x="735" 
d="M105 178v344q0 89 48.5 133.5t156.5 44.5h205q63 0 91.5 -27t28.5 -86v-75h-120v56q0 19 -19 19h-188q-50 0 -66.5 -17.5t-16.5 -63.5v-312q0 -46 16.5 -63.5t66.5 -17.5h188q19 0 19 19v116h120v-135q0 -59 -28.5 -86t-91.5 -27h-205q-108 0 -156.5 44.5t-48.5 133.5z
M329 770v115h120v-115h-120z" />
    <glyph glyph-name="cdotaccent" unicode="&#x10b;" horiz-adv-x="735" 
d="M105 178v344q0 89 48.5 133.5t156.5 44.5h205q63 0 91.5 -27t28.5 -86v-75h-120v56q0 19 -19 19h-188q-50 0 -66.5 -17.5t-16.5 -63.5v-312q0 -46 16.5 -63.5t66.5 -17.5h188q19 0 19 19v116h120v-135q0 -59 -28.5 -86t-91.5 -27h-205q-108 0 -156.5 44.5t-48.5 133.5z
M329 770v115h120v-115h-120z" />
    <glyph glyph-name="Ccaron" unicode="&#x10c;" horiz-adv-x="735" 
d="M105 178v344q0 89 48.5 133.5t156.5 44.5h205q63 0 91.5 -27t28.5 -86v-75h-120v56q0 19 -19 19h-188q-50 0 -66.5 -17.5t-16.5 -63.5v-312q0 -46 16.5 -63.5t66.5 -17.5h188q19 0 19 19v116h120v-135q0 -59 -28.5 -86t-91.5 -27h-205q-108 0 -156.5 44.5t-48.5 133.5z
M300 760l-94 130h113l67 -83l67 83h113l-94 -130h-172z" />
    <glyph glyph-name="ccaron" unicode="&#x10d;" horiz-adv-x="735" 
d="M105 178v344q0 89 48.5 133.5t156.5 44.5h205q63 0 91.5 -27t28.5 -86v-75h-120v56q0 19 -19 19h-188q-50 0 -66.5 -17.5t-16.5 -63.5v-312q0 -46 16.5 -63.5t66.5 -17.5h188q19 0 19 19v116h120v-135q0 -59 -28.5 -86t-91.5 -27h-205q-108 0 -156.5 44.5t-48.5 133.5z
M303 760l-94 130h113l67 -83l67 83h113l-94 -130h-172z" />
    <glyph glyph-name="Dcaron" unicode="&#x10e;" 
d="M110 0v700h350q108 0 156.5 -44.5t48.5 -133.5v-344q0 -89 -48.5 -133.5t-156.5 -44.5h-350zM230 113h232q50 0 66.5 17.5t16.5 63.5v312q0 46 -16.5 63.5t-66.5 17.5h-232v-474zM300 760l-94 130h113l67 -83l67 83h113l-94 -130h-172z" />
    <glyph glyph-name="dcaron" unicode="&#x10f;" 
d="M110 0v700h350q108 0 156.5 -44.5t48.5 -133.5v-344q0 -89 -48.5 -133.5t-156.5 -44.5h-350zM230 113h232q50 0 66.5 17.5t16.5 63.5v312q0 46 -16.5 63.5t-66.5 17.5h-232v-474zM300 760l-94 130h113l67 -83l67 83h113l-94 -130h-172z" />
    <glyph glyph-name="Dcroat" unicode="&#x110;" horiz-adv-x="790" 
d="M130 0v315h-75v102h75v283h350q108 0 156.5 -44.5t48.5 -133.5v-344q0 -89 -48.5 -133.5t-156.5 -44.5h-350zM250 113h232q50 0 66.5 17.5t16.5 63.5v312q0 46 -16.5 63.5t-66.5 17.5h-232v-170h175v-102h-175v-202z" />
    <glyph glyph-name="dcroat" unicode="&#x111;" horiz-adv-x="790" 
d="M130 0v315h-75v102h75v283h350q108 0 156.5 -44.5t48.5 -133.5v-344q0 -89 -48.5 -133.5t-156.5 -44.5h-350zM250 113h232q50 0 66.5 17.5t16.5 63.5v312q0 46 -16.5 63.5t-66.5 17.5h-232v-170h175v-102h-175v-202z" />
    <glyph glyph-name="Emacron" unicode="&#x112;" horiz-adv-x="721" 
d="M110 0v700h521v-113h-401v-137h316v-113h-316v-224h400v-113h-520zM200 783v92h340v-92h-340z" />
    <glyph glyph-name="emacron" unicode="&#x113;" horiz-adv-x="721" 
d="M110 0v700h521v-113h-401v-137h316v-113h-316v-224h400v-113h-520zM200 783v92h340v-92h-340z" />
    <glyph glyph-name="Ebreve" unicode="&#x114;" horiz-adv-x="721" 
d="M110 0v700h521v-113h-401v-137h316v-113h-316v-224h400v-113h-520zM204 899h89q0 -33 18 -53.5t54 -20.5t54.5 21t18.5 53h87q0 -69 -46 -107.5t-113 -38.5t-114.5 38.5t-47.5 107.5z" />
    <glyph glyph-name="ebreve" unicode="&#x115;" horiz-adv-x="721" 
d="M110 0v700h521v-113h-401v-137h316v-113h-316v-224h400v-113h-520zM204 899h89q0 -33 18 -53.5t54 -20.5t54.5 21t18.5 53h87q0 -69 -46 -107.5t-113 -38.5t-114.5 38.5t-47.5 107.5z" />
    <glyph glyph-name="Edotaccent" unicode="&#x116;" horiz-adv-x="721" 
d="M110 0v700h521v-113h-401v-137h316v-113h-316v-224h400v-113h-520zM305 770v115h120v-115h-120z" />
    <glyph glyph-name="edotaccent" unicode="&#x117;" horiz-adv-x="721" 
d="M110 0v700h521v-113h-401v-137h316v-113h-316v-224h400v-113h-520zM305 770v115h120v-115h-120z" />
    <glyph glyph-name="Eogonek" unicode="&#x118;" horiz-adv-x="720" 
d="M110 0v700h520v-113h-400v-137h316v-113h-316v-224h400v-113l-55 -54q-29 -29 -29 -48q0 -27 38 -27h46v-83h-70q-55 0 -83 25.5t-28 64.5q0 49 49 93l32 29h-420z" />
    <glyph glyph-name="eogonek" unicode="&#x119;" horiz-adv-x="720" 
d="M110 0v700h520v-113h-400v-137h316v-113h-316v-224h400v-113l-55 -54q-29 -29 -29 -48q0 -27 38 -27h46v-83h-70q-55 0 -83 25.5t-28 64.5q0 49 49 93l32 29h-420z" />
    <glyph glyph-name="Ecaron" unicode="&#x11a;" horiz-adv-x="721" 
d="M110 0v700h521v-113h-401v-137h316v-113h-316v-224h400v-113h-520zM294 760l-94 130h113l67 -83l67 83h113l-94 -130h-172z" />
    <glyph glyph-name="ecaron" unicode="&#x11b;" horiz-adv-x="721" 
d="M110 0v700h521v-113h-401v-137h316v-113h-316v-224h400v-113h-520zM294 760l-94 130h113l67 -83l67 83h113l-94 -130h-172z" />
    <glyph glyph-name="Gcircumflex" unicode="&#x11c;" 
d="M105 178v344q0 89 48.5 133.5t156.5 44.5h235q63 0 91.5 -27t28.5 -86v-75h-120v56q0 19 -19 19h-218q-50 0 -66.5 -17.5t-16.5 -63.5v-312q0 -46 16.5 -63.5t66.5 -17.5h218q19 0 19 19v184h-155v113h275v-316q0 -59 -28.5 -86t-91.5 -27h-235q-108 0 -156.5 44.5
t-48.5 133.5zM219 760l94 130h172l94 -130h-113l-67 83l-67 -83h-113z" />
    <glyph glyph-name="gcircumflex" unicode="&#x11d;" 
d="M105 178v344q0 89 48.5 133.5t156.5 44.5h235q63 0 91.5 -27t28.5 -86v-75h-120v56q0 19 -19 19h-218q-50 0 -66.5 -17.5t-16.5 -63.5v-312q0 -46 16.5 -63.5t66.5 -17.5h218q19 0 19 19v184h-155v113h275v-316q0 -59 -28.5 -86t-91.5 -27h-235q-108 0 -156.5 44.5
t-48.5 133.5zM219 760l94 130h172l94 -130h-113l-67 83l-67 -83h-113z" />
    <glyph glyph-name="Gbreve" unicode="&#x11e;" 
d="M105 178v344q0 89 48.5 133.5t156.5 44.5h235q63 0 91.5 -27t28.5 -86v-75h-120v56q0 19 -19 19h-218q-50 0 -66.5 -17.5t-16.5 -63.5v-312q0 -46 16.5 -63.5t66.5 -17.5h218q19 0 19 19v184h-155v113h275v-316q0 -59 -28.5 -86t-91.5 -27h-235q-108 0 -156.5 44.5
t-48.5 133.5zM238 899h89q0 -33 18 -53.5t54 -20.5t54.5 21t18.5 53h87q0 -69 -46 -107.5t-113 -38.5t-114.5 38.5t-47.5 107.5z" />
    <glyph glyph-name="gbreve" unicode="&#x11f;" 
d="M105 178v344q0 89 48.5 133.5t156.5 44.5h235q63 0 91.5 -27t28.5 -86v-75h-120v56q0 19 -19 19h-218q-50 0 -66.5 -17.5t-16.5 -63.5v-312q0 -46 16.5 -63.5t66.5 -17.5h218q19 0 19 19v184h-155v113h275v-316q0 -59 -28.5 -86t-91.5 -27h-235q-108 0 -156.5 44.5
t-48.5 133.5zM228 899h89q0 -33 18 -53.5t54 -20.5t54.5 21t18.5 53h87q0 -69 -46 -107.5t-113 -38.5t-114.5 38.5t-47.5 107.5z" />
    <glyph glyph-name="Gdotaccent" unicode="&#x120;" 
d="M105 178v344q0 89 48.5 133.5t156.5 44.5h235q63 0 91.5 -27t28.5 -86v-75h-120v56q0 19 -19 19h-218q-50 0 -66.5 -17.5t-16.5 -63.5v-312q0 -46 16.5 -63.5t66.5 -17.5h218q19 0 19 19v184h-155v113h275v-316q0 -59 -28.5 -86t-91.5 -27h-235q-108 0 -156.5 44.5
t-48.5 133.5zM339 770v115h120v-115h-120z" />
    <glyph glyph-name="gdotaccent" unicode="&#x121;" 
d="M105 178v344q0 89 48.5 133.5t156.5 44.5h235q63 0 91.5 -27t28.5 -86v-75h-120v56q0 19 -19 19h-218q-50 0 -66.5 -17.5t-16.5 -63.5v-312q0 -46 16.5 -63.5t66.5 -17.5h218q19 0 19 19v184h-155v113h275v-316q0 -59 -28.5 -86t-91.5 -27h-235q-108 0 -156.5 44.5
t-48.5 133.5zM339 770v115h120v-115h-120z" />
    <glyph glyph-name="Gcommaaccent" unicode="&#x122;" 
d="M105 178v344q0 89 48.5 133.5t156.5 44.5h235q63 0 91.5 -27t28.5 -86v-75h-120v56q0 19 -19 19h-218q-50 0 -66.5 -17.5t-16.5 -63.5v-312q0 -46 16.5 -63.5t66.5 -17.5h218q19 0 19 19v184h-155v113h275v-316q0 -59 -28.5 -86t-91.5 -27h-235q-108 0 -156.5 44.5
t-48.5 133.5zM343 -247v55h29q19 0 19 19v18h-67v110h130v-120q0 -82 -86 -82h-25z" />
    <glyph glyph-name="gcommaaccent" unicode="&#x123;" 
d="M105 178v344q0 89 48.5 133.5t156.5 44.5h235q63 0 91.5 -27t28.5 -86v-75h-120v56q0 19 -19 19h-218q-50 0 -66.5 -17.5t-16.5 -63.5v-312q0 -46 16.5 -63.5t66.5 -17.5h218q19 0 19 19v184h-155v113h275v-316q0 -59 -28.5 -86t-91.5 -27h-235q-108 0 -156.5 44.5
t-48.5 133.5zM343 -247v55h29q19 0 19 19v18h-67v110h130v-120q0 -82 -86 -82h-25z" />
    <glyph glyph-name="Hcircumflex" unicode="&#x124;" horiz-adv-x="790" 
d="M110 0v700h120v-250h330v250h120v-700h-120v337h-330v-337h-120zM215 760l94 130h172l94 -130h-113l-67 83l-67 -83h-113z" />
    <glyph glyph-name="hcircumflex" unicode="&#x125;" horiz-adv-x="790" 
d="M110 0v700h120v-250h330v250h120v-700h-120v337h-330v-337h-120zM215 760l94 130h172l94 -130h-113l-67 83l-67 -83h-113z" />
    <glyph glyph-name="Hbar" unicode="&#x126;" horiz-adv-x="790" 
d="M110 0v531h-35v92h35v77h120v-77h330v77h120v-77h35v-92h-35v-531h-120v337h-330v-337h-120zM230 450h330v81h-330v-81z" />
    <glyph glyph-name="hbar" unicode="&#x127;" horiz-adv-x="790" 
d="M110 0v531h-35v92h35v77h120v-77h330v77h120v-77h35v-92h-35v-531h-120v337h-330v-337h-120zM230 450h330v81h-330v-81z" />
    <glyph glyph-name="Itilde" unicode="&#x128;" horiz-adv-x="360" 
d="M120 0v700h120v-700h-120zM-2 763q16 125 107 125q44 0 85.5 -25t57.5 -25q15 0 23.5 10t12.5 37h78q-13 -125 -109 -125q-45 0 -85 24t-56 24q-15 0 -24 -9.5t-13 -35.5h-77z" />
    <glyph glyph-name="itilde" unicode="&#x129;" horiz-adv-x="360" 
d="M120 0v700h120v-700h-120zM-2 763q16 125 107 125q44 0 85.5 -25t57.5 -25q15 0 23.5 10t12.5 37h78q-13 -125 -109 -125q-45 0 -85 24t-56 24q-15 0 -24 -9.5t-13 -35.5h-77z" />
    <glyph glyph-name="Imacron" unicode="&#x12a;" horiz-adv-x="360" 
d="M120 0v700h120v-700h-120zM10 783v92h340v-92h-340z" />
    <glyph glyph-name="imacron" unicode="&#x12b;" horiz-adv-x="360" 
d="M120 0v700h120v-700h-120zM10 783v92h340v-92h-340z" />
    <glyph glyph-name="Ibreve" unicode="&#x12c;" horiz-adv-x="360" 
d="M120 0v700h120v-700h-120zM19 899h89q0 -33 18 -53.5t54 -20.5t54.5 21t18.5 53h87q0 -69 -46 -107.5t-113 -38.5t-114.5 38.5t-47.5 107.5z" />
    <glyph glyph-name="ibreve" unicode="&#x12d;" horiz-adv-x="360" 
d="M120 0v700h120v-700h-120zM19 899h89q0 -33 18 -53.5t54 -20.5t54.5 21t18.5 53h87q0 -69 -46 -107.5t-113 -38.5t-114.5 38.5t-47.5 107.5z" />
    <glyph glyph-name="Iogonek" unicode="&#x12e;" horiz-adv-x="360" 
d="M240 -212h-70q-55 0 -83 25.5t-28 64.5q0 49 49 93l32 29h-20v700h120v-700l-55 -54q-29 -29 -29 -48q0 -27 38 -27h46v-83z" />
    <glyph glyph-name="iogonek" unicode="&#x12f;" horiz-adv-x="360" 
d="M240 -212h-70q-55 0 -83 25.5t-28 64.5q0 49 49 93l32 29h-20v700h120v-700l-55 -54q-29 -29 -29 -48q0 -27 38 -27h46v-83z" />
    <glyph glyph-name="Idotaccent" unicode="&#x130;" horiz-adv-x="360" 
d="M120 770v115h120v-115h-120zM120 0v700h120v-700h-120z" />
    <glyph glyph-name="dotlessi" unicode="&#x131;" horiz-adv-x="360" 
d="M120 0v700h120v-700h-120z" />
    <glyph glyph-name="IJ" unicode="&#x132;" horiz-adv-x="1018" 
d="M120 0v700h120v-700h-120zM440 0v113h270q50 0 66.5 17.5t16.5 63.5v393h-300v113h420v-522q0 -89 -48.5 -133.5t-156.5 -44.5h-268z" />
    <glyph glyph-name="ij" unicode="&#x133;" horiz-adv-x="1018" 
d="M120 0v700h120v-700h-120zM440 0v113h270q50 0 66.5 17.5t16.5 63.5v393h-300v113h420v-522q0 -89 -48.5 -133.5t-156.5 -44.5h-268z" />
    <glyph glyph-name="Jcircumflex" unicode="&#x134;" horiz-adv-x="658" 
d="M80 0v113h270q50 0 66.5 17.5t16.5 63.5v393h-300v113h420v-522q0 -89 -48.5 -133.5t-156.5 -44.5h-268zM162 760l94 130h172l94 -130h-113l-67 83l-67 -83h-113z" />
    <glyph glyph-name="jcircumflex" unicode="&#x135;" horiz-adv-x="658" 
d="M80 0v113h270q50 0 66.5 17.5t16.5 63.5v393h-300v113h420v-522q0 -89 -48.5 -133.5t-156.5 -44.5h-268zM162 760l94 130h172l94 -130h-113l-67 83l-67 -83h-113z" />
    <glyph glyph-name="Kcommaaccent" unicode="&#x136;" horiz-adv-x="730" 
d="M110 0v700h120v-329l286 329h145l-192 -220l211 -480h-131l-168 378l-151 -174v-204h-120zM319 -247v55h29q19 0 19 19v18h-67v110h130v-120q0 -82 -86 -82h-25z" />
    <glyph glyph-name="kcommaaccent" unicode="&#x137;" horiz-adv-x="730" 
d="M110 0v700h120v-329l286 329h145l-192 -220l211 -480h-131l-168 378l-151 -174v-204h-120zM319 -247v55h29q19 0 19 19v18h-67v110h130v-120q0 -82 -86 -82h-25z" />
    <glyph glyph-name="kgreenlandic" unicode="&#x138;" horiz-adv-x="730" 
d="M110 0v700h120v-329l286 329h145l-192 -220l211 -480h-131l-168 378l-151 -174v-204h-120z" />
    <glyph glyph-name="Lacute" unicode="&#x139;" horiz-adv-x="665" 
d="M110 0v700h120v-587h385v-113h-505zM110 760l69 130h129l-82 -130h-116z" />
    <glyph glyph-name="lacute" unicode="&#x13a;" horiz-adv-x="665" 
d="M110 0v700h120v-587h385v-113h-505zM110 760l69 130h129l-82 -130h-116z" />
    <glyph glyph-name="Lcommaaccent" unicode="&#x13b;" horiz-adv-x="665" 
d="M110 0v700h120v-587h385v-113h-505zM318 -247v55h29q19 0 19 19v18h-67v110h130v-120q0 -82 -86 -82h-25z" />
    <glyph glyph-name="lcommaaccent" unicode="&#x13c;" horiz-adv-x="665" 
d="M110 0v700h120v-587h385v-113h-505zM318 -247v55h29q19 0 19 19v18h-67v110h130v-120q0 -82 -86 -82h-25z" />
    <glyph glyph-name="Lcaron" unicode="&#x13d;" horiz-adv-x="665" 
d="M110 0v700h120v-587h385v-113h-505zM327 453v247h111l-25 -247h-86z" />
    <glyph glyph-name="lcaron" unicode="&#x13e;" horiz-adv-x="665" 
d="M110 0v700h120v-587h385v-113h-505zM307 453v247h111l-25 -247h-86z" />
    <glyph glyph-name="Ldot" unicode="&#x13f;" horiz-adv-x="665" 
d="M110 0v700h120v-587h385v-113h-505zM333 336v115h120v-115h-120z" />
    <glyph glyph-name="ldot" unicode="&#x140;" horiz-adv-x="665" 
d="M110 0v700h120v-587h385v-113h-505zM303 336v115h120v-115h-120z" />
    <glyph glyph-name="Lslash" unicode="&#x141;" horiz-adv-x="705" 
d="M150 0v214l-80 -47v113l80 47v373h120v-301l220 131v-113l-220 -131v-173h385v-113h-505z" />
    <glyph glyph-name="lslash" unicode="&#x142;" horiz-adv-x="705" 
d="M150 0v214l-80 -47v113l80 47v373h120v-301l220 131v-113l-220 -131v-173h385v-113h-505z" />
    <glyph glyph-name="Nacute" unicode="&#x143;" horiz-adv-x="820" 
d="M110 0v700h150l330 -312v312h120v-700h-120v230l-360 339v-569h-120zM341 760l69 130h129l-82 -130h-116z" />
    <glyph glyph-name="nacute" unicode="&#x144;" horiz-adv-x="820" 
d="M110 0v700h150l330 -312v312h120v-700h-120v230l-360 339v-569h-120zM341 760l69 130h129l-82 -130h-116z" />
    <glyph glyph-name="Ncommaaccent" unicode="&#x145;" horiz-adv-x="820" 
d="M110 0v700h150l330 -312v312h120v-700h-120v230l-360 339v-569h-120zM364 -247v55h29q19 0 19 19v18h-67v110h130v-120q0 -82 -86 -82h-25z" />
    <glyph glyph-name="ncommaaccent" unicode="&#x146;" horiz-adv-x="820" 
d="M110 0v700h150l330 -312v312h120v-700h-120v230l-360 339v-569h-120zM364 -247v55h29q19 0 19 19v18h-67v110h130v-120q0 -82 -86 -82h-25z" />
    <glyph glyph-name="Ncaron" unicode="&#x147;" horiz-adv-x="820" 
d="M110 0v700h150l330 -312v312h120v-700h-120v230l-360 339v-569h-120zM324 760l-94 130h113l67 -83l67 83h113l-94 -130h-172z" />
    <glyph glyph-name="ncaron" unicode="&#x148;" horiz-adv-x="820" 
d="M110 0v700h150l330 -312v312h120v-700h-120v230l-360 339v-569h-120zM324 760l-94 130h113l67 -83l67 83h113l-94 -130h-172z" />
    <glyph glyph-name="Eng" unicode="&#x14a;" horiz-adv-x="820" 
d="M110 0v700h150l330 -312v312h120v-700q0 -80 -52.5 -129t-147.5 -49h-29v113h29q38 0 59 20t21 53v222l-360 339v-569h-120z" />
    <glyph glyph-name="eng" unicode="&#x14b;" horiz-adv-x="820" 
d="M110 0v700h150l330 -312v312h120v-700q0 -80 -52.5 -129t-147.5 -49h-29v113h29q38 0 59 20t21 53v222l-360 339v-569h-120z" />
    <glyph glyph-name="Omacron" unicode="&#x14c;" 
d="M110 113v474q0 59 28.5 86t91.5 27h310q63 0 91.5 -27t28.5 -86v-474q0 -59 -28.5 -86t-91.5 -27h-310q-63 0 -91.5 27t-28.5 86zM249 113h272q19 0 19 19v436q0 19 -19 19h-272q-19 0 -19 -19v-436q0 -19 19 -19zM215 783v92h340v-92h-340z" />
    <glyph glyph-name="omacron" unicode="&#x14d;" 
d="M110 113v474q0 59 28.5 86t91.5 27h310q63 0 91.5 -27t28.5 -86v-474q0 -59 -28.5 -86t-91.5 -27h-310q-63 0 -91.5 27t-28.5 86zM249 113h272q19 0 19 19v436q0 19 -19 19h-272q-19 0 -19 -19v-436q0 -19 19 -19zM215 783v92h340v-92h-340z" />
    <glyph glyph-name="Obreve" unicode="&#x14e;" 
d="M110 113v474q0 59 28.5 86t91.5 27h310q63 0 91.5 -27t28.5 -86v-474q0 -59 -28.5 -86t-91.5 -27h-310q-63 0 -91.5 27t-28.5 86zM249 113h272q19 0 19 19v436q0 19 -19 19h-272q-19 0 -19 -19v-436q0 -19 19 -19zM224 899h89q0 -33 18 -53.5t54 -20.5t54.5 21t18.5 53
h87q0 -69 -46 -107.5t-113 -38.5t-114.5 38.5t-47.5 107.5z" />
    <glyph glyph-name="obreve" unicode="&#x14f;" 
d="M110 113v474q0 59 28.5 86t91.5 27h310q63 0 91.5 -27t28.5 -86v-474q0 -59 -28.5 -86t-91.5 -27h-310q-63 0 -91.5 27t-28.5 86zM249 113h272q19 0 19 19v436q0 19 -19 19h-272q-19 0 -19 -19v-436q0 -19 19 -19zM224 899h89q0 -33 18 -53.5t54 -20.5t54.5 21t18.5 53
h87q0 -69 -46 -107.5t-113 -38.5t-114.5 38.5t-47.5 107.5z" />
    <glyph glyph-name="Ohungarumlaut" unicode="&#x150;" 
d="M110 113v474q0 59 28.5 86t91.5 27h310q63 0 91.5 -27t28.5 -86v-474q0 -59 -28.5 -86t-91.5 -27h-310q-63 0 -91.5 27t-28.5 86zM249 113h272q19 0 19 19v436q0 19 -19 19h-272q-19 0 -19 -19v-436q0 -19 19 -19zM211 760l79 130h131l-90 -130h-120zM411 760l79 130h131
l-90 -130h-120z" />
    <glyph glyph-name="ohungarumlaut" unicode="&#x151;" 
d="M110 113v474q0 59 28.5 86t91.5 27h310q63 0 91.5 -27t28.5 -86v-474q0 -59 -28.5 -86t-91.5 -27h-310q-63 0 -91.5 27t-28.5 86zM249 113h272q19 0 19 19v436q0 19 -19 19h-272q-19 0 -19 -19v-436q0 -19 19 -19zM211 760l79 130h131l-90 -130h-120zM411 760l79 130h131
l-90 -130h-120z" />
    <glyph glyph-name="OE" unicode="&#x152;" horiz-adv-x="1131" 
d="M110 113v474q0 59 28.5 86t91.5 27h811v-113h-391v-137h306v-113h-306v-224h390v-113h-810q-63 0 -91.5 27t-28.5 86zM249 113h281v474h-281q-19 0 -19 -19v-436q0 -19 19 -19z" />
    <glyph glyph-name="oe" unicode="&#x153;" horiz-adv-x="1131" 
d="M110 113v474q0 59 28.5 86t91.5 27h811v-113h-391v-137h306v-113h-306v-224h390v-113h-810q-63 0 -91.5 27t-28.5 86zM249 113h281v474h-281q-19 0 -19 -19v-436q0 -19 19 -19z" />
    <glyph glyph-name="Racute" unicode="&#x154;" horiz-adv-x="760" 
d="M110 0v700h371q184 0 184 -153q0 -104 -100 -164l97 -383h-126l-83 325l-223 -113v-212h-120zM230 337l242 122q24 12 37.5 21t25 24.5t11.5 33.5q0 49 -63 49h-253v-250zM314 760l69 130h129l-82 -130h-116z" />
    <glyph glyph-name="racute" unicode="&#x155;" horiz-adv-x="760" 
d="M110 0v700h371q184 0 184 -153q0 -104 -100 -164l97 -383h-126l-83 325l-223 -113v-212h-120zM230 337l242 122q24 12 37.5 21t25 24.5t11.5 33.5q0 49 -63 49h-253v-250zM314 760l69 130h129l-82 -130h-116z" />
    <glyph glyph-name="Rcommaaccent" unicode="&#x156;" horiz-adv-x="760" 
d="M110 0v700h371q184 0 184 -153q0 -104 -100 -164l97 -383h-126l-83 325l-223 -113v-212h-120zM230 337l242 122q24 12 37.5 21t25 24.5t11.5 33.5q0 49 -63 49h-253v-250zM334 -247v55h29q19 0 19 19v18h-67v110h130v-120q0 -82 -86 -82h-25z" />
    <glyph glyph-name="rcommaaccent" unicode="&#x157;" horiz-adv-x="760" 
d="M110 0v700h371q184 0 184 -153q0 -104 -100 -164l97 -383h-126l-83 325l-223 -113v-212h-120zM230 337l242 122q24 12 37.5 21t25 24.5t11.5 33.5q0 49 -63 49h-253v-250zM334 -247v55h29q19 0 19 19v18h-67v110h130v-120q0 -82 -86 -82h-25z" />
    <glyph glyph-name="Rcaron" unicode="&#x158;" horiz-adv-x="760" 
d="M110 0v700h371q184 0 184 -153q0 -104 -100 -164l97 -383h-126l-83 325l-223 -113v-212h-120zM230 337l242 122q24 12 37.5 21t25 24.5t11.5 33.5q0 49 -63 49h-253v-250zM296 760l-94 130h113l67 -83l67 83h113l-94 -130h-172z" />
    <glyph glyph-name="rcaron" unicode="&#x159;" horiz-adv-x="760" 
d="M110 0v700h371q184 0 184 -153q0 -104 -100 -164l97 -383h-126l-83 325l-223 -113v-212h-120zM230 337l242 122q24 12 37.5 21t25 24.5t11.5 33.5q0 49 -63 49h-253v-250zM296 760l-94 130h113l67 -83l67 83h113l-94 -130h-172z" />
    <glyph glyph-name="Sacute" unicode="&#x15a;" horiz-adv-x="765" 
d="M105 113v125h120v-106q0 -19 19 -19h272q19 0 19 19v143q0 13 -6 17.5t-26 8.5l-198 36q-101 18 -153 59.5t-52 122.5q0 84 51.5 132.5t155.5 48.5h228q63 0 91.5 -27t28.5 -86v-75h-120v56q0 19 -19 19h-213q-40 0 -61.5 -16.5t-21.5 -47.5q0 -34 26 -51t87 -28l213 -38
q61 -11 85 -30.5t24 -63.5v-199q0 -59 -28.5 -86t-91.5 -27h-310q-63 0 -91.5 27t-28.5 86zM333 760l69 130h129l-82 -130h-116z" />
    <glyph glyph-name="sacute" unicode="&#x15b;" horiz-adv-x="765" 
d="M105 113v125h120v-106q0 -19 19 -19h272q19 0 19 19v143q0 13 -6 17.5t-26 8.5l-198 36q-101 18 -153 59.5t-52 122.5q0 84 51.5 132.5t155.5 48.5h228q63 0 91.5 -27t28.5 -86v-75h-120v56q0 19 -19 19h-213q-40 0 -61.5 -16.5t-21.5 -47.5q0 -34 26 -51t87 -28l213 -38
q61 -11 85 -30.5t24 -63.5v-199q0 -59 -28.5 -86t-91.5 -27h-310q-63 0 -91.5 27t-28.5 86zM333 760l69 130h129l-82 -130h-116z" />
    <glyph glyph-name="Scircumflex" unicode="&#x15c;" horiz-adv-x="765" 
d="M105 113v125h120v-106q0 -19 19 -19h272q19 0 19 19v143q0 13 -6 17.5t-26 8.5l-198 36q-101 18 -153 59.5t-52 122.5q0 84 51.5 132.5t155.5 48.5h228q63 0 91.5 -27t28.5 -86v-75h-120v56q0 19 -19 19h-213q-40 0 -61.5 -16.5t-21.5 -47.5q0 -34 26 -51t87 -28l213 -38
q61 -11 85 -30.5t24 -63.5v-199q0 -59 -28.5 -86t-91.5 -27h-310q-63 0 -91.5 27t-28.5 86zM212 760l94 130h172l94 -130h-113l-67 83l-67 -83h-113z" />
    <glyph glyph-name="scircumflex" unicode="&#x15d;" horiz-adv-x="765" 
d="M105 113v125h120v-106q0 -19 19 -19h272q19 0 19 19v143q0 13 -6 17.5t-26 8.5l-198 36q-101 18 -153 59.5t-52 122.5q0 84 51.5 132.5t155.5 48.5h228q63 0 91.5 -27t28.5 -86v-75h-120v56q0 19 -19 19h-213q-40 0 -61.5 -16.5t-21.5 -47.5q0 -34 26 -51t87 -28l213 -38
q61 -11 85 -30.5t24 -63.5v-199q0 -59 -28.5 -86t-91.5 -27h-310q-63 0 -91.5 27t-28.5 86zM212 760l94 130h172l94 -130h-113l-67 83l-67 -83h-113z" />
    <glyph glyph-name="Scedilla" unicode="&#x15e;" horiz-adv-x="765" 
d="M295 -212l13 69h84q37 0 37 26q0 25 -37 25h-75l17 92h-109q-63 0 -91.5 27t-28.5 86v125h120v-106q0 -19 19 -19h272q19 0 19 19v143q0 13 -6 17.5t-26 8.5l-198 36q-101 19 -153 60t-52 122q0 84 51.5 132.5t155.5 48.5h228q63 0 91.5 -27t28.5 -86v-75h-120v56
q0 19 -19 19h-213q-40 0 -61.5 -16.5t-21.5 -47.5q0 -34 26 -51t87 -28l213 -38q61 -11 85 -30.5t24 -63.5v-199q0 -59 -28.5 -86t-91.5 -27h-132l-6 -31q71 -2 93 -23.5t22 -60.5q0 -46 -30.5 -71.5t-83.5 -25.5h-103z" />
    <glyph glyph-name="scedilla" unicode="&#x15f;" horiz-adv-x="765" 
d="M295 -212l13 69h84q37 0 37 26q0 25 -37 25h-75l17 92h-109q-63 0 -91.5 27t-28.5 86v125h120v-106q0 -19 19 -19h272q19 0 19 19v143q0 13 -6 17.5t-26 8.5l-198 36q-101 19 -153 60t-52 122q0 84 51.5 132.5t155.5 48.5h228q63 0 91.5 -27t28.5 -86v-75h-120v56
q0 19 -19 19h-213q-40 0 -61.5 -16.5t-21.5 -47.5q0 -34 26 -51t87 -28l213 -38q61 -11 85 -30.5t24 -63.5v-199q0 -59 -28.5 -86t-91.5 -27h-132l-6 -31q71 -2 93 -23.5t22 -60.5q0 -46 -30.5 -71.5t-83.5 -25.5h-103z" />
    <glyph glyph-name="Scaron" unicode="&#x160;" horiz-adv-x="765" 
d="M105 113v125h120v-106q0 -19 19 -19h272q19 0 19 19v143q0 13 -6 17.5t-26 8.5l-198 36q-101 18 -153 59.5t-52 122.5q0 84 51.5 132.5t155.5 48.5h228q63 0 91.5 -27t28.5 -86v-75h-120v56q0 19 -19 19h-213q-40 0 -61.5 -16.5t-21.5 -47.5q0 -34 26 -51t87 -28l213 -38
q61 -11 85 -30.5t24 -63.5v-199q0 -59 -28.5 -86t-91.5 -27h-310q-63 0 -91.5 27t-28.5 86zM303 760l-94 130h113l67 -83l67 83h113l-94 -130h-172z" />
    <glyph glyph-name="scaron" unicode="&#x161;" horiz-adv-x="765" 
d="M105 113v125h120v-106q0 -19 19 -19h272q19 0 19 19v143q0 13 -6 17.5t-26 8.5l-198 36q-101 18 -153 59.5t-52 122.5q0 84 51.5 132.5t155.5 48.5h228q63 0 91.5 -27t28.5 -86v-75h-120v56q0 19 -19 19h-213q-40 0 -61.5 -16.5t-21.5 -47.5q0 -34 26 -51t87 -28l213 -38
q61 -11 85 -30.5t24 -63.5v-199q0 -59 -28.5 -86t-91.5 -27h-310q-63 0 -91.5 27t-28.5 86zM306 760l-94 130h113l67 -83l67 83h113l-94 -130h-172z" />
    <glyph glyph-name="Tcommaaccent" unicode="&#x162;" horiz-adv-x="722" 
d="M287 -212l13 69h84q37 0 37 26q0 25 -37 25h-75l17 92h-25v587h-251v113h622v-113h-251v-587h-26l-6 -31q71 -2 93 -23.5t22 -60.5q0 -46 -30.5 -71.5t-83.5 -25.5h-103z" />
    <glyph glyph-name="tcommaaccent" unicode="&#x163;" horiz-adv-x="722" 
d="M287 -212l13 69h84q37 0 37 26q0 25 -37 25h-75l17 92h-25v587h-251v113h622v-113h-251v-587h-26l-6 -31q71 -2 93 -23.5t22 -60.5q0 -46 -30.5 -71.5t-83.5 -25.5h-103z" />
    <glyph glyph-name="Tcaron" unicode="&#x164;" horiz-adv-x="722" 
d="M301 0v587h-251v113h622v-113h-251v-587h-120zM275 760l-94 130h113l67 -83l67 83h113l-94 -130h-172z" />
    <glyph glyph-name="tcaron" unicode="&#x165;" horiz-adv-x="722" 
d="M301 0v587h-251v113h622v-113h-251v-587h-120zM275 760l-94 130h113l67 -83l67 83h113l-94 -130h-172z" />
    <glyph glyph-name="Tbar" unicode="&#x166;" horiz-adv-x="722" 
d="M301 0v313h-140v102h140v172h-251v113h622v-113h-251v-172h140v-102h-140v-313h-120z" />
    <glyph glyph-name="tbar" unicode="&#x167;" horiz-adv-x="722" 
d="M301 0v313h-140v102h140v172h-251v113h622v-113h-251v-172h140v-102h-140v-313h-120z" />
    <glyph glyph-name="Utilde" unicode="&#x168;" 
d="M110 113v587h120v-568q0 -19 19 -19h272q19 0 19 19v568h120v-587q0 -59 -28.5 -86t-91.5 -27h-310q-63 0 -91.5 27t-28.5 86zM203 763q16 125 107 125q44 0 85.5 -25t57.5 -25q15 0 23.5 10t12.5 37h78q-13 -125 -109 -125q-45 0 -85 24t-56 24q-15 0 -24 -9.5
t-13 -35.5h-77z" />
    <glyph glyph-name="utilde" unicode="&#x169;" 
d="M110 113v587h120v-568q0 -19 19 -19h272q19 0 19 19v568h120v-587q0 -59 -28.5 -86t-91.5 -27h-310q-63 0 -91.5 27t-28.5 86zM203 763q16 125 107 125q44 0 85.5 -25t57.5 -25q15 0 23.5 10t12.5 37h78q-13 -125 -109 -125q-45 0 -85 24t-56 24q-15 0 -24 -9.5
t-13 -35.5h-77z" />
    <glyph glyph-name="Umacron" unicode="&#x16a;" 
d="M110 113v587h120v-568q0 -19 19 -19h272q19 0 19 19v568h120v-587q0 -59 -28.5 -86t-91.5 -27h-310q-63 0 -91.5 27t-28.5 86zM215 783v92h340v-92h-340z" />
    <glyph glyph-name="umacron" unicode="&#x16b;" 
d="M110 113v587h120v-568q0 -19 19 -19h272q19 0 19 19v568h120v-587q0 -59 -28.5 -86t-91.5 -27h-310q-63 0 -91.5 27t-28.5 86zM215 783v92h340v-92h-340z" />
    <glyph glyph-name="Ubreve" unicode="&#x16c;" 
d="M110 113v587h120v-568q0 -19 19 -19h272q19 0 19 19v568h120v-587q0 -59 -28.5 -86t-91.5 -27h-310q-63 0 -91.5 27t-28.5 86zM224 899h89q0 -33 18 -53.5t54 -20.5t54.5 21t18.5 53h87q0 -69 -46 -107.5t-113 -38.5t-114.5 38.5t-47.5 107.5z" />
    <glyph glyph-name="ubreve" unicode="&#x16d;" 
d="M110 113v587h120v-568q0 -19 19 -19h272q19 0 19 19v568h120v-587q0 -59 -28.5 -86t-91.5 -27h-310q-63 0 -91.5 27t-28.5 86zM224 899h89q0 -33 18 -53.5t54 -20.5t54.5 21t18.5 53h87q0 -69 -46 -107.5t-113 -38.5t-114.5 38.5t-47.5 107.5z" />
    <glyph glyph-name="Uring" unicode="&#x16e;" 
d="M110 113v587h120v-568q0 -19 19 -19h272q19 0 19 19v568h120v-587q0 -59 -28.5 -86t-91.5 -27h-310q-63 0 -91.5 27t-28.5 86zM250 783q0 56 38.5 95t95.5 39t96 -39t39 -95t-39 -94.5t-96 -38.5t-95.5 38.5t-38.5 94.5zM384 713q30 0 49.5 20t19.5 50t-19.5 50t-49.5 20
t-49.5 -20t-19.5 -50q0 -29 20 -49.5t49 -20.5z" />
    <glyph glyph-name="uring" unicode="&#x16f;" 
d="M110 113v587h120v-568q0 -19 19 -19h272q19 0 19 19v568h120v-587q0 -59 -28.5 -86t-91.5 -27h-310q-63 0 -91.5 27t-28.5 86zM250 783q0 56 38.5 95t95.5 39t96 -39t39 -95t-39 -94.5t-96 -38.5t-95.5 38.5t-38.5 94.5zM384 713q30 0 49.5 20t19.5 50t-19.5 50t-49.5 20
t-49.5 -20t-19.5 -50q0 -29 20 -49.5t49 -20.5z" />
    <glyph glyph-name="Uhungarumlaut" unicode="&#x170;" 
d="M110 113v587h120v-568q0 -19 19 -19h272q19 0 19 19v568h120v-587q0 -59 -28.5 -86t-91.5 -27h-310q-63 0 -91.5 27t-28.5 86zM210 760l79 130h131l-90 -130h-120zM410 760l79 130h131l-90 -130h-120z" />
    <glyph glyph-name="uhungarumlaut" unicode="&#x171;" 
d="M110 113v587h120v-568q0 -19 19 -19h272q19 0 19 19v568h120v-587q0 -59 -28.5 -86t-91.5 -27h-310q-63 0 -91.5 27t-28.5 86zM210 760l79 130h131l-90 -130h-120zM410 760l79 130h131l-90 -130h-120z" />
    <glyph glyph-name="Uogonek" unicode="&#x172;" 
d="M110 113v587h120v-568q0 -19 19 -19h272q19 0 19 19v568h120v-570q0 -35 -12 -55.5t-40 -45.5l-90 -83q-29 -26 -29 -48q0 -27 38 -27h46v-83h-70q-55 0 -83 25.5t-28 64.5q0 49 49 93l32 29h-243q-63 0 -91.5 27t-28.5 86z" />
    <glyph glyph-name="uogonek" unicode="&#x173;" 
d="M110 113v587h120v-568q0 -19 19 -19h272q19 0 19 19v568h120v-570q0 -35 -12 -55.5t-40 -45.5l-90 -83q-29 -26 -29 -48q0 -27 38 -27h46v-83h-70q-55 0 -83 25.5t-28 64.5q0 49 49 93l32 29h-243q-63 0 -91.5 27t-28.5 86z" />
    <glyph glyph-name="Wcircumflex" unicode="&#x174;" horiz-adv-x="1075" 
d="M193 0l-106 700h122l88 -587h51l131 587h117l131 -587h51l88 587h122l-106 -700h-245l-101 454l-100 -454h-243zM357 760l94 130h172l94 -130h-113l-67 83l-67 -83h-113z" />
    <glyph glyph-name="wcircumflex" unicode="&#x175;" horiz-adv-x="1075" 
d="M193 0l-106 700h122l88 -587h51l131 587h117l131 -587h51l88 587h122l-106 -700h-245l-101 454l-100 -454h-243zM357 760l94 130h172l94 -130h-113l-67 83l-67 -83h-113z" />
    <glyph glyph-name="Ycircumflex" unicode="&#x176;" horiz-adv-x="676" 
d="M277 0v271l-237 429h139l160 -301l159 301h138l-239 -431v-269h-120zM157 760l94 130h172l94 -130h-113l-67 83l-67 -83h-113z" />
    <glyph glyph-name="ycircumflex" unicode="&#x177;" horiz-adv-x="676" 
d="M277 0v271l-237 429h139l160 -301l159 301h138l-239 -431v-269h-120zM157 760l94 130h172l94 -130h-113l-67 83l-67 -83h-113z" />
    <glyph glyph-name="Ydieresis" unicode="&#x178;" horiz-adv-x="676" 
d="M277 0v271l-237 429h139l160 -301l159 301h138l-239 -431v-269h-120zM156 770v115h120v-115h-120zM398 770v115h120v-115h-120z" />
    <glyph glyph-name="Zacute" unicode="&#x179;" horiz-adv-x="701" 
d="M90 0v113l374 474h-374v113h521v-113l-374 -474h373v-113h-520zM291 760l69 130h129l-82 -130h-116z" />
    <glyph glyph-name="zacute" unicode="&#x17a;" horiz-adv-x="701" 
d="M90 0v113l374 474h-374v113h521v-113l-374 -474h373v-113h-520zM291 760l69 130h129l-82 -130h-116z" />
    <glyph glyph-name="Zdotaccent" unicode="&#x17b;" horiz-adv-x="701" 
d="M90 0v113l374 474h-374v113h521v-113l-374 -474h373v-113h-520zM290 770v115h120v-115h-120z" />
    <glyph glyph-name="zdotaccent" unicode="&#x17c;" horiz-adv-x="701" 
d="M90 0v113l374 474h-374v113h521v-113l-374 -474h373v-113h-520zM290 770v115h120v-115h-120z" />
    <glyph glyph-name="Zcaron" unicode="&#x17d;" horiz-adv-x="701" 
d="M90 0v113l374 474h-374v113h521v-113l-374 -474h373v-113h-520zM264 760l-94 130h113l67 -83l67 83h113l-94 -130h-172z" />
    <glyph glyph-name="zcaron" unicode="&#x17e;" horiz-adv-x="701" 
d="M90 0v113l374 474h-374v113h521v-113l-374 -474h373v-113h-520zM264 760l-94 130h113l67 -83l67 83h113l-94 -130h-172z" />
    <glyph glyph-name="uni018F" unicode="&#x18f;" horiz-adv-x="765" 
d="M100 113v316h440v77q0 46 -16.5 63.5t-66.5 17.5h-218q-19 0 -19 -19v-56h-120v75q0 59 28.5 86t91.5 27h235q108 0 156.5 -44.5t48.5 -133.5v-344q0 -89 -48.5 -133.5t-156.5 -44.5h-235q-63 0 -91.5 27t-28.5 86zM239 113h218q50 0 66.5 17.5t16.5 63.5v122h-320v-184
q0 -19 19 -19z" />
    <glyph glyph-name="florin" unicode="&#x192;" horiz-adv-x="730" 
d="M150 0v113h72q50 0 66.5 17.5t16.5 63.5v169h-155v73h155v86q0 89 48.5 133.5t156.5 44.5h70v-113h-72q-50 0 -66.5 -17.5t-16.5 -63.5v-70h155v-73h-155v-185q0 -89 -48.5 -133.5t-156.5 -44.5h-70z" />
    <glyph glyph-name="AEacute" unicode="&#x1fc;" horiz-adv-x="1083" 
d="M80 0l130 700h783v-113h-391v-137h306v-113h-306v-224h390v-113h-510v228h-240l-42 -228h-120zM263 341h219v246h-174zM543 760l69 130h129l-82 -130h-116z" />
    <glyph glyph-name="aeacute" unicode="&#x1fd;" horiz-adv-x="1083" 
d="M80 0l130 700h783v-113h-391v-137h306v-113h-306v-224h390v-113h-510v228h-240l-42 -228h-120zM263 341h219v246h-174zM543 760l69 130h129l-82 -130h-116z" />
    <glyph glyph-name="Oslashacute" unicode="&#x1fe;" horiz-adv-x="790" 
d="M120 -50l36 64q-46 24 -46 99v474q0 59 28.5 86t91.5 27h311l28 50h100l-36 -64q47 -25 47 -99v-474q0 -59 -28.5 -86t-91.5 -27h-312l-28 -50h-100zM311 113h230q19 0 19 19v424zM230 146l247 441h-228q-19 0 -19 -19v-422zM316 760l69 130h129l-82 -130h-116z" />
    <glyph glyph-name="oslashacute" unicode="&#x1ff;" horiz-adv-x="790" 
d="M120 -50l36 64q-46 24 -46 99v474q0 59 28.5 86t91.5 27h311l28 50h100l-36 -64q47 -25 47 -99v-474q0 -59 -28.5 -86t-91.5 -27h-312l-28 -50h-100zM311 113h230q19 0 19 19v424zM230 146l247 441h-228q-19 0 -19 -19v-422zM316 760l69 130h129l-82 -130h-116z" />
    <glyph glyph-name="Scommaaccent" unicode="&#x218;" horiz-adv-x="765" 
d="M105 113v125h120v-106q0 -19 19 -19h272q19 0 19 19v143q0 13 -6 17.5t-26 8.5l-198 36q-101 18 -153 59.5t-52 122.5q0 84 51.5 132.5t155.5 48.5h228q63 0 91.5 -27t28.5 -86v-75h-120v56q0 19 -19 19h-213q-40 0 -61.5 -16.5t-21.5 -47.5q0 -34 26 -51t87 -28l213 -38
q61 -11 85 -30.5t24 -63.5v-199q0 -59 -28.5 -86t-91.5 -27h-310q-63 0 -91.5 27t-28.5 86zM336 -247v55h29q19 0 19 19v18h-67v110h130v-120q0 -82 -86 -82h-25z" />
    <glyph glyph-name="scommaaccent" unicode="&#x219;" horiz-adv-x="765" 
d="M105 113v125h120v-106q0 -19 19 -19h272q19 0 19 19v143q0 13 -6 17.5t-26 8.5l-198 36q-101 18 -153 59.5t-52 122.5q0 84 51.5 132.5t155.5 48.5h228q63 0 91.5 -27t28.5 -86v-75h-120v56q0 19 -19 19h-213q-40 0 -61.5 -16.5t-21.5 -47.5q0 -34 26 -51t87 -28l213 -38
q61 -11 85 -30.5t24 -63.5v-199q0 -59 -28.5 -86t-91.5 -27h-310q-63 0 -91.5 27t-28.5 86zM336 -247v55h29q19 0 19 19v18h-67v110h130v-120q0 -82 -86 -82h-25z" />
    <glyph glyph-name="uni021A" unicode="&#x21a;" horiz-adv-x="722" 
d="M301 0v587h-251v113h622v-113h-251v-587h-120zM315 -247v55h29q19 0 19 19v18h-67v110h130v-120q0 -82 -86 -82h-25z" />
    <glyph glyph-name="uni021B" unicode="&#x21b;" horiz-adv-x="722" 
d="M301 0v587h-251v113h622v-113h-251v-587h-120zM315 -247v55h29q19 0 19 19v18h-67v110h130v-120q0 -82 -86 -82h-25z" />
    <glyph glyph-name="dotlessj" unicode="&#x237;" horiz-adv-x="658" 
d="M80 0v113h270q50 0 66.5 17.5t16.5 63.5v393h-300v113h420v-522q0 -89 -48.5 -133.5t-156.5 -44.5h-268z" />
    <glyph glyph-name="uni0259" unicode="&#x259;" horiz-adv-x="765" 
d="M100 113v316h440v77q0 46 -16.5 63.5t-66.5 17.5h-218q-19 0 -19 -19v-56h-120v75q0 59 28.5 86t91.5 27h235q108 0 156.5 -44.5t48.5 -133.5v-344q0 -89 -48.5 -133.5t-156.5 -44.5h-235q-63 0 -91.5 27t-28.5 86zM239 113h218q50 0 66.5 17.5t16.5 63.5v122h-320v-184
q0 -19 19 -19z" />
    <glyph glyph-name="circumflex" unicode="&#x2c6;" horiz-adv-x="600" 
d="M120 760l94 130h172l94 -130h-113l-67 83l-67 -83h-113z" />
    <glyph glyph-name="caron" unicode="&#x2c7;" horiz-adv-x="600" 
d="M214 760l-94 130h113l67 -83l67 83h113l-94 -130h-172z" />
    <glyph glyph-name="breve" unicode="&#x2d8;" horiz-adv-x="600" 
d="M139 899h89q0 -33 18 -53.5t54 -20.5t54.5 21t18.5 53h87q0 -69 -46 -107.5t-113 -38.5t-114.5 38.5t-47.5 107.5z" />
    <glyph glyph-name="dotaccent" unicode="&#x2d9;" horiz-adv-x="600" 
d="M240 770v115h120v-115h-120z" />
    <glyph glyph-name="ring" unicode="&#x2da;" horiz-adv-x="600" 
d="M165 783q0 56 38.5 95t95.5 39t96 -39t39 -95t-39 -94.5t-96 -38.5t-95.5 38.5t-38.5 94.5zM299 713q30 0 49.5 20t19.5 50t-19.5 50t-49.5 20t-49.5 -20t-19.5 -50q0 -29 20 -49.5t49 -20.5z" />
    <glyph glyph-name="ogonek" unicode="&#x2db;" horiz-adv-x="600" 
d="M388 -212h-70q-55 0 -83 25.5t-28 64.5q0 49 49 93l32 29h100l-55 -54q-29 -29 -29 -48q0 -27 38 -27h46v-83z" />
    <glyph glyph-name="tilde" unicode="&#x2dc;" horiz-adv-x="600" 
d="M118 763q16 125 107 125q44 0 85.5 -25t57.5 -25q15 0 23.5 10t12.5 37h78q-13 -125 -109 -125q-45 0 -85 24t-56 24q-15 0 -24 -9.5t-13 -35.5h-77z" />
    <glyph glyph-name="hungarumlaut" unicode="&#x2dd;" horiz-adv-x="600" 
d="M95 760l79 130h131l-90 -130h-120zM295 760l79 130h131l-90 -130h-120z" />
    <glyph glyph-name="uni0401" unicode="&#x401;" horiz-adv-x="721" 
d="M110 0v700h521v-113h-401v-137h316v-113h-316v-224h400v-113h-520zM189 770v115h120v-115h-120zM431 770v115h120v-115h-120z" />
    <glyph glyph-name="uni0402" unicode="&#x402;" horiz-adv-x="929" 
d="M301 0v587h-251v113h622v-113h-251v-124l355 -77q41 -9 52 -29.5t11 -64.5v-114q0 -80 -52.5 -129t-147.5 -49h-118v113h118q39 0 59.5 20.5t20.5 54.5v58q0 21 -7.5 32t-29.5 16l-261 56v-350h-120z" />
    <glyph glyph-name="uni0403" unicode="&#x403;" horiz-adv-x="630" 
d="M110 0v700h470v-113h-350v-587h-120zM292 760l69 130h129l-82 -130h-116z" />
    <glyph glyph-name="uni0404" unicode="&#x404;" horiz-adv-x="742" 
d="M107 178v344q0 80 52.5 129t147.5 49h244q86 0 86 -86v-102h-120v56q0 19 -19 19h-191q-39 0 -59.5 -20.5t-20.5 -54.5v-62h240v-113h-240v-149q0 -34 20.5 -54.5t59.5 -20.5h191q19 0 19 19v116h120v-162q0 -86 -86 -86h-244q-95 0 -147.5 49t-52.5 129z" />
    <glyph glyph-name="uni0405" unicode="&#x405;" horiz-adv-x="765" 
d="M105 113v125h120v-106q0 -19 19 -19h272q19 0 19 19v143q0 13 -6 17.5t-26 8.5l-198 36q-101 18 -153 59.5t-52 122.5q0 84 51.5 132.5t155.5 48.5h228q63 0 91.5 -27t28.5 -86v-75h-120v56q0 19 -19 19h-213q-40 0 -61.5 -16.5t-21.5 -47.5q0 -34 26 -51t87 -28l213 -38
q61 -11 85 -30.5t24 -63.5v-199q0 -59 -28.5 -86t-91.5 -27h-310q-63 0 -91.5 27t-28.5 86z" />
    <glyph glyph-name="uni0406" unicode="&#x406;" horiz-adv-x="360" 
d="M120 0v700h120v-700h-120z" />
    <glyph glyph-name="uni0407" unicode="&#x407;" horiz-adv-x="340" 
d="M120 0v700h120v-700h-120zM-11 770v115h120v-115h-120zM231 770v115h120v-115h-120z" />
    <glyph glyph-name="uni0408" unicode="&#x408;" horiz-adv-x="619" 
d="M80 0v113h270q50 0 66.5 17.5t16.5 63.5v393h-300v113h420v-522q0 -89 -48.5 -133.5t-156.5 -44.5h-268z" />
    <glyph glyph-name="uni0409" unicode="&#x409;" horiz-adv-x="1157" 
d="M45 0v113h43q34 0 50.5 14t21.5 49l81 524h421v-239l342 -75q41 -9 52 -29.5t11 -64.5v-206q0 -86 -86 -86h-439v587h-195l-72 -444q-13 -80 -53 -111.5t-113 -31.5h-64zM662 113h266q19 0 19 19v114q0 21 -7.5 32t-29.5 16l-248 53v-234z" />
    <glyph glyph-name="uni040A" unicode="&#x40a;" horiz-adv-x="1175" 
d="M560 0v337h-330v-337h-120v700h120v-250h330v250h120v-239l342 -75q41 -9 52 -29.5t11 -64.5v-206q0 -86 -86 -86h-439zM680 113h266q19 0 19 19v114q0 21 -7.5 32t-29.5 16l-248 53v-234z" />
    <glyph glyph-name="uni040B" unicode="&#x40b;" horiz-adv-x="929" 
d="M301 0v587h-251v113h622v-113h-251v-124l355 -77q41 -9 52 -29.5t11 -64.5v-292h-120v246q0 21 -7.5 32t-29.5 16l-261 56v-350h-120z" />
    <glyph glyph-name="uni040C" unicode="&#x40c;" horiz-adv-x="730" 
d="M110 0v700h120v-329l286 329h145l-192 -220l211 -480h-131l-168 378l-151 -174v-204h-120zM312 760l69 130h129l-82 -130h-116z" />
    <glyph glyph-name="uni040E" unicode="&#x40e;" horiz-adv-x="697" 
d="M533 700h129l-267 -593q-29 -63 -67.5 -85t-113.5 -22h-75v113h60q47 0 65 11.5t35 50.5l8 19l-252 506h136l176 -371zM196 899h89q0 -33 18 -53.5t54 -20.5t54.5 21t18.5 53h87q0 -69 -46 -107.5t-113 -38.5t-114.5 38.5t-47.5 107.5z" />
    <glyph glyph-name="uni040F" unicode="&#x40f;" horiz-adv-x="760" 
d="M110 0v700h120v-587h300v587h120v-700h-213v-153h-114v153h-213z" />
    <glyph glyph-name="uni0410" unicode="&#x410;" horiz-adv-x="752" 
d="M80 0l131 700h330l131 -700h-122l-43 228h-265l-42 -228h-120zM263 341h223l-45 246h-132z" />
    <glyph glyph-name="uni0411" unicode="&#x411;" horiz-adv-x="765" 
d="M110 0v700h521v-113h-401v-130l372 -81q41 -9 52 -29.5t11 -64.5v-196q0 -86 -86 -86h-469zM230 113h296q19 0 19 19v104q0 21 -7.5 32t-29.5 16l-278 60v-231z" />
    <glyph glyph-name="uni0412" unicode="&#x412;" horiz-adv-x="765" 
d="M110 0v700h353q102 0 152 -47.5t50 -124.5q0 -104 -90 -149l27 -13q40 -20 51.5 -37.5t11.5 -55.5v-160q0 -59 -28.5 -86t-91.5 -27h-435zM230 113h296q19 0 19 19v124q0 20 -7.5 29t-29.5 19l-70 32l-208 -52v-171zM230 392l214 55q30 8 44.5 13t30 13.5t21.5 21t6 31.5
q0 61 -80 61h-236v-195z" />
    <glyph glyph-name="uni0413" unicode="&#x413;" horiz-adv-x="630" 
d="M110 0v700h470v-113h-350v-587h-120z" />
    <glyph glyph-name="uni0414" unicode="&#x414;" horiz-adv-x="817" 
d="M45 -153v266h61q30 0 46.5 22t24.5 74l76 491h421v-587h93v-266h-114v153h-494v-153h-114zM359 587l-63 -389q-10 -54 -27 -85h285v474h-195z" />
    <glyph glyph-name="uni0415" unicode="&#x415;" horiz-adv-x="721" 
d="M110 0v700h521v-113h-401v-137h316v-113h-316v-224h400v-113h-520z" />
    <glyph glyph-name="uni0416" unicode="&#x416;" horiz-adv-x="1004" 
d="M62 0l206 394l-208 306h145l165 -250h72v250h120v-250h72l165 250h145l-208 -306l206 -394h-142l-167 337h-71v-337h-120v337h-72l-166 -337h-142z" />
    <glyph glyph-name="uni0417" unicode="&#x417;" horiz-adv-x="750" 
d="M100 86v162h120v-116q0 -19 19 -19h272q19 0 19 19v124q0 20 -7.5 29t-29.5 19l-72 33h-101v113h120q48 13 69.5 29.5t21.5 49.5q0 58 -80 58h-212q-19 0 -19 -19v-56h-120v102q0 86 86 86h262q101 0 151.5 -47.5t50.5 -122.5q0 -57 -24.5 -91t-70.5 -57l32 -16
q40 -20 51.5 -37.5t11.5 -55.5v-187q0 -86 -86 -86h-378q-86 0 -86 86z" />
    <glyph glyph-name="uni0418" unicode="&#x418;" horiz-adv-x="790" 
d="M110 0v700h120v-403l330 292v111h120v-700h-120v441l-330 -291v-150h-120z" />
    <glyph glyph-name="uni0419" unicode="&#x419;" horiz-adv-x="790" 
d="M110 0v700h120v-403l330 292v111h120v-700h-120v441l-330 -291v-150h-120zM235 869h89q0 -33 18 -53.5t54 -20.5t54.5 21t18.5 53h87q0 -69 -46 -107.5t-113 -38.5t-114.5 38.5t-47.5 107.5z" />
    <glyph glyph-name="uni041A" unicode="&#x41a;" horiz-adv-x="730" 
d="M110 0v700h120v-329l286 329h145l-192 -220l211 -480h-131l-168 378l-151 -174v-204h-120z" />
    <glyph glyph-name="uni041B" unicode="&#x41b;" horiz-adv-x="772" 
d="M45 0v113h43q34 0 50.5 14t21.5 49l81 524h421v-700h-120v587h-195l-72 -444q-13 -80 -53 -111.5t-113 -31.5h-64z" />
    <glyph glyph-name="uni041C" unicode="&#x41c;" horiz-adv-x="937" 
d="M110 0v700h156l203 -534l203 534h155v-700h-120v500l-190 -500h-97l-190 500v-500h-120z" />
    <glyph glyph-name="uni041D" unicode="&#x41d;" horiz-adv-x="790" 
d="M110 0v700h120v-250h330v250h120v-700h-120v337h-330v-337h-120z" />
    <glyph glyph-name="uni041E" unicode="&#x41e;" 
d="M110 113v474q0 59 28.5 86t91.5 27h310q63 0 91.5 -27t28.5 -86v-474q0 -59 -28.5 -86t-91.5 -27h-310q-63 0 -91.5 27t-28.5 86zM249 113h272q19 0 19 19v436q0 19 -19 19h-272q-19 0 -19 -19v-436q0 -19 19 -19z" />
    <glyph glyph-name="uni041F" unicode="&#x41f;" horiz-adv-x="775" 
d="M110 0v700h555v-700h-120v587h-315v-587h-120z" />
    <glyph glyph-name="uni0420" unicode="&#x420;" horiz-adv-x="725" 
d="M110 0v700h371q184 0 184 -153q0 -67 -33.5 -108t-95.5 -72l-306 -155v-212h-120zM230 337l242 122q24 12 37.5 21t25 24.5t11.5 33.5q0 49 -63 49h-253v-250z" />
    <glyph glyph-name="uni0421" unicode="&#x421;" horiz-adv-x="735" 
d="M105 178v344q0 89 48.5 133.5t156.5 44.5h205q63 0 91.5 -27t28.5 -86v-75h-120v56q0 19 -19 19h-188q-50 0 -66.5 -17.5t-16.5 -63.5v-312q0 -46 16.5 -63.5t66.5 -17.5h188q19 0 19 19v116h120v-135q0 -59 -28.5 -86t-91.5 -27h-205q-108 0 -156.5 44.5t-48.5 133.5z
" />
    <glyph glyph-name="uni0422" unicode="&#x422;" horiz-adv-x="722" 
d="M301 0v587h-251v113h622v-113h-251v-587h-120z" />
    <glyph glyph-name="uni0423" unicode="&#x423;" horiz-adv-x="697" 
d="M533 700h129l-267 -593q-29 -63 -67.5 -85t-113.5 -22h-75v113h60q47 0 65 11.5t35 50.5l8 19l-252 506h136l176 -371z" />
    <glyph glyph-name="uni0424" unicode="&#x424;" horiz-adv-x="890" 
d="M80 258v184q0 80 52.5 129t147.5 49h105v80h120v-80h105q95 0 147.5 -49t52.5 -129v-184q0 -80 -52.5 -129t-147.5 -49h-105v-80h-120v80h-105q-95 0 -147.5 49t-52.5 129zM505 193h105q39 0 59.5 20.5t20.5 54.5v164q0 34 -20.5 54.5t-59.5 20.5h-105v-314zM280 193h105
v314h-105q-39 0 -59.5 -20.5t-20.5 -54.5v-164q0 -34 20.5 -54.5t59.5 -20.5z" />
    <glyph glyph-name="uni0425" unicode="&#x425;" horiz-adv-x="734" 
d="M45 0l246 363l-229 337h142l163 -243l166 243h140l-231 -333l247 -367h-141l-182 272l-183 -272h-138z" />
    <glyph glyph-name="uni0426" unicode="&#x426;" horiz-adv-x="810" 
d="M110 0v700h120v-587h320v587h120v-587h90v-266h-114v153h-536z" />
    <glyph glyph-name="uni0427" unicode="&#x427;" horiz-adv-x="731" 
d="M501 0v240l-221 43q-115 22 -157.5 65t-42.5 133v219h120v-209q0 -80 80 -95l221 -43v347h120v-700h-120z" />
    <glyph glyph-name="uni0428" unicode="&#x428;" horiz-adv-x="1000" 
d="M110 0v700h120v-587h210v587h120v-587h210v587h120v-700h-780z" />
    <glyph glyph-name="uni0429" unicode="&#x429;" horiz-adv-x="1030" 
d="M110 0v700h120v-587h210v587h120v-587h210v587h120v-587h90v-266h-114v153h-756z" />
    <glyph glyph-name="uni042A" unicode="&#x42a;" horiz-adv-x="874" 
d="M229 0v587h-179v113h299v-233l372 -81q41 -9 52 -29.5t11 -64.5v-206q0 -86 -86 -86h-469zM349 113h296q19 0 19 19v114q0 21 -7.5 32t-29.5 16l-278 60v-241z" />
    <glyph glyph-name="uni042B" unicode="&#x42b;" horiz-adv-x="1030" 
d="M110 0v700h120v-239l342 -75q41 -9 52 -29.5t11 -64.5v-206q0 -86 -86 -86h-439zM230 113h266q19 0 19 19v114q0 21 -7.5 32t-29.5 16l-248 53v-234zM800 0v700h120v-700h-120z" />
    <glyph glyph-name="uni042C" unicode="&#x42c;" horiz-adv-x="725" 
d="M110 0v700h120v-239l342 -75q41 -9 52 -29.5t11 -64.5v-206q0 -86 -86 -86h-439zM230 113h266q19 0 19 19v114q0 21 -7.5 32t-29.5 16l-248 53v-234z" />
    <glyph glyph-name="uni042D" unicode="&#x42d;" horiz-adv-x="760" 
d="M105 86v162h120v-116q0 -19 19 -19h211q39 0 59.5 20.5t20.5 54.5v149h-260v113h260v62q0 34 -20.5 54.5t-59.5 20.5h-211q-19 0 -19 -19v-56h-120v102q0 86 86 86h264q95 0 147.5 -49t52.5 -129v-344q0 -80 -52.5 -129t-147.5 -49h-264q-86 0 -86 86z" />
    <glyph glyph-name="uni042E" unicode="&#x42e;" horiz-adv-x="1055" 
d="M110 0v700h120v-250h180v72q0 80 52.5 129t147.5 49h140q95 0 147.5 -49t52.5 -129v-344q0 -80 -52.5 -129t-147.5 -49h-140q-95 0 -147.5 49t-52.5 129v159h-180v-337h-120zM610 113h140q39 0 59.5 20.5t20.5 54.5v324q0 34 -20.5 54.5t-59.5 20.5h-140
q-39 0 -59.5 -20.5t-20.5 -54.5v-324q0 -34 20.5 -54.5t59.5 -20.5z" />
    <glyph glyph-name="uni042F" unicode="&#x42f;" horiz-adv-x="760" 
d="M196 0h-130l180 357q-92 48 -121.5 83.5t-29.5 107.5q0 78 46.5 115t142.5 37h366v-700h-120v213l-180 91zM316 446l214 -109v250h-241q-41 0 -58 -9t-17 -40q0 -29 18.5 -44t83.5 -48z" />
    <glyph glyph-name="uni0430" unicode="&#x430;" horiz-adv-x="752" 
d="M80 0l131 700h330l131 -700h-122l-43 228h-265l-42 -228h-120zM263 341h223l-45 246h-132z" />
    <glyph glyph-name="uni0431" unicode="&#x431;" horiz-adv-x="765" 
d="M110 0v700h521v-113h-401v-130l372 -81q41 -9 52 -29.5t11 -64.5v-196q0 -86 -86 -86h-469zM230 113h296q19 0 19 19v104q0 21 -7.5 32t-29.5 16l-278 60v-231z" />
    <glyph glyph-name="uni0432" unicode="&#x432;" horiz-adv-x="765" 
d="M110 0v700h353q102 0 152 -47.5t50 -124.5q0 -104 -90 -149l27 -13q40 -20 51.5 -37.5t11.5 -55.5v-160q0 -59 -28.5 -86t-91.5 -27h-435zM230 113h296q19 0 19 19v124q0 20 -7.5 29t-29.5 19l-70 32l-208 -52v-171zM230 392l214 55q30 8 44.5 13t30 13.5t21.5 21t6 31.5
q0 61 -80 61h-236v-195z" />
    <glyph glyph-name="uni0433" unicode="&#x433;" horiz-adv-x="630" 
d="M110 0v700h470v-113h-350v-587h-120z" />
    <glyph glyph-name="uni0434" unicode="&#x434;" horiz-adv-x="817" 
d="M45 -153v266h61q30 0 46.5 22t24.5 74l76 491h421v-587h93v-266h-114v153h-494v-153h-114zM359 587l-63 -389q-10 -54 -27 -85h285v474h-195z" />
    <glyph glyph-name="uni0435" unicode="&#x435;" horiz-adv-x="721" 
d="M110 0v700h521v-113h-401v-137h316v-113h-316v-224h400v-113h-520z" />
    <glyph glyph-name="uni0436" unicode="&#x436;" horiz-adv-x="1004" 
d="M62 0l206 394l-208 306h145l165 -250h72v250h120v-250h72l165 250h145l-208 -306l206 -394h-142l-167 337h-71v-337h-120v337h-72l-166 -337h-142z" />
    <glyph glyph-name="uni0437" unicode="&#x437;" horiz-adv-x="750" 
d="M100 86v162h120v-116q0 -19 19 -19h272q19 0 19 19v124q0 20 -7.5 29t-29.5 19l-72 33h-101v113h120q48 13 69.5 29.5t21.5 49.5q0 58 -80 58h-212q-19 0 -19 -19v-56h-120v102q0 86 86 86h262q101 0 151.5 -47.5t50.5 -122.5q0 -57 -24.5 -91t-70.5 -57l32 -16
q40 -20 51.5 -37.5t11.5 -55.5v-187q0 -86 -86 -86h-378q-86 0 -86 86z" />
    <glyph glyph-name="uni0438" unicode="&#x438;" horiz-adv-x="790" 
d="M110 0v700h120v-403l330 292v111h120v-700h-120v441l-330 -291v-150h-120z" />
    <glyph glyph-name="uni0439" unicode="&#x439;" horiz-adv-x="790" 
d="M110 0v700h120v-403l330 292v111h120v-700h-120v441l-330 -291v-150h-120zM235 869h89q0 -33 18 -53.5t54 -20.5t54.5 21t18.5 53h87q0 -69 -46 -107.5t-113 -38.5t-114.5 38.5t-47.5 107.5z" />
    <glyph glyph-name="uni043A" unicode="&#x43a;" horiz-adv-x="730" 
d="M110 0v700h120v-329l286 329h145l-192 -220l211 -480h-131l-168 378l-151 -174v-204h-120z" />
    <glyph glyph-name="uni043B" unicode="&#x43b;" horiz-adv-x="772" 
d="M45 0v113h43q34 0 50.5 14t21.5 49l81 524h421v-700h-120v587h-195l-72 -444q-13 -80 -53 -111.5t-113 -31.5h-64z" />
    <glyph glyph-name="uni043C" unicode="&#x43c;" horiz-adv-x="937" 
d="M110 0v700h156l203 -534l203 534h155v-700h-120v500l-190 -500h-97l-190 500v-500h-120z" />
    <glyph glyph-name="uni043D" unicode="&#x43d;" horiz-adv-x="790" 
d="M110 0v700h120v-250h330v250h120v-700h-120v337h-330v-337h-120z" />
    <glyph glyph-name="uni043E" unicode="&#x43e;" 
d="M110 113v474q0 59 28.5 86t91.5 27h310q63 0 91.5 -27t28.5 -86v-474q0 -59 -28.5 -86t-91.5 -27h-310q-63 0 -91.5 27t-28.5 86zM249 113h272q19 0 19 19v436q0 19 -19 19h-272q-19 0 -19 -19v-436q0 -19 19 -19z" />
    <glyph glyph-name="uni043F" unicode="&#x43f;" 
d="M110 0v700h555v-700h-120v587h-315v-587h-120z" />
    <glyph glyph-name="uni0440" unicode="&#x440;" horiz-adv-x="725" 
d="M110 0v700h371q184 0 184 -153q0 -67 -33.5 -108t-95.5 -72l-306 -155v-212h-120zM230 337l242 122q24 12 37.5 21t25 24.5t11.5 33.5q0 49 -63 49h-253v-250z" />
    <glyph glyph-name="uni0441" unicode="&#x441;" horiz-adv-x="735" 
d="M105 178v344q0 89 48.5 133.5t156.5 44.5h205q63 0 91.5 -27t28.5 -86v-75h-120v56q0 19 -19 19h-188q-50 0 -66.5 -17.5t-16.5 -63.5v-312q0 -46 16.5 -63.5t66.5 -17.5h188q19 0 19 19v116h120v-135q0 -59 -28.5 -86t-91.5 -27h-205q-108 0 -156.5 44.5t-48.5 133.5z
" />
    <glyph glyph-name="uni0442" unicode="&#x442;" horiz-adv-x="722" 
d="M301 0v587h-251v113h622v-113h-251v-587h-120z" />
    <glyph glyph-name="uni0443" unicode="&#x443;" horiz-adv-x="697" 
d="M533 700h129l-267 -593q-29 -63 -67.5 -85t-113.5 -22h-75v113h60q47 0 65 11.5t35 50.5l8 19l-252 506h136l176 -371z" />
    <glyph glyph-name="uni0444" unicode="&#x444;" horiz-adv-x="890" 
d="M80 258v184q0 80 52.5 129t147.5 49h105v80h120v-80h105q95 0 147.5 -49t52.5 -129v-184q0 -80 -52.5 -129t-147.5 -49h-105v-80h-120v80h-105q-95 0 -147.5 49t-52.5 129zM505 193h105q39 0 59.5 20.5t20.5 54.5v164q0 34 -20.5 54.5t-59.5 20.5h-105v-314zM280 193h105
v314h-105q-39 0 -59.5 -20.5t-20.5 -54.5v-164q0 -34 20.5 -54.5t59.5 -20.5z" />
    <glyph glyph-name="uni0445" unicode="&#x445;" horiz-adv-x="734" 
d="M45 0l246 363l-229 337h142l163 -243l166 243h140l-231 -333l247 -367h-141l-182 272l-183 -272h-138z" />
    <glyph glyph-name="uni0446" unicode="&#x446;" horiz-adv-x="810" 
d="M110 0v700h120v-587h320v587h120v-587h90v-266h-114v153h-536z" />
    <glyph glyph-name="uni0447" unicode="&#x447;" horiz-adv-x="731" 
d="M501 0v240l-221 43q-115 22 -157.5 65t-42.5 133v219h120v-209q0 -80 80 -95l221 -43v347h120v-700h-120z" />
    <glyph glyph-name="uni0448" unicode="&#x448;" horiz-adv-x="1000" 
d="M110 0v700h120v-587h210v587h120v-587h210v587h120v-700h-780z" />
    <glyph glyph-name="uni0449" unicode="&#x449;" horiz-adv-x="1030" 
d="M110 0v700h120v-587h210v587h120v-587h210v587h120v-587h90v-266h-114v153h-756z" />
    <glyph glyph-name="uni044A" unicode="&#x44a;" horiz-adv-x="874" 
d="M229 0v587h-179v113h299v-233l372 -81q41 -9 52 -29.5t11 -64.5v-206q0 -86 -86 -86h-469zM349 113h296q19 0 19 19v114q0 21 -7.5 32t-29.5 16l-278 60v-241z" />
    <glyph glyph-name="uni044B" unicode="&#x44b;" horiz-adv-x="1060" 
d="M110 0v700h120v-239l342 -75q41 -9 52 -29.5t11 -64.5v-206q0 -86 -86 -86h-439zM230 113h266q19 0 19 19v114q0 21 -7.5 32t-29.5 16l-248 53v-234zM820 0v700h120v-700h-120z" />
    <glyph glyph-name="uni044C" unicode="&#x44c;" horiz-adv-x="725" 
d="M110 0v700h120v-239l342 -75q41 -9 52 -29.5t11 -64.5v-206q0 -86 -86 -86h-439zM230 113h266q19 0 19 19v114q0 21 -7.5 32t-29.5 16l-248 53v-234z" />
    <glyph glyph-name="uni044D" unicode="&#x44d;" horiz-adv-x="760" 
d="M105 86v162h120v-116q0 -19 19 -19h211q39 0 59.5 20.5t20.5 54.5v149h-260v113h260v62q0 34 -20.5 54.5t-59.5 20.5h-211q-19 0 -19 -19v-56h-120v102q0 86 86 86h264q95 0 147.5 -49t52.5 -129v-344q0 -80 -52.5 -129t-147.5 -49h-264q-86 0 -86 86z" />
    <glyph glyph-name="uni044E" unicode="&#x44e;" horiz-adv-x="1055" 
d="M110 0v700h120v-250h180v72q0 80 52.5 129t147.5 49h140q95 0 147.5 -49t52.5 -129v-344q0 -80 -52.5 -129t-147.5 -49h-140q-95 0 -147.5 49t-52.5 129v159h-180v-337h-120zM610 113h140q39 0 59.5 20.5t20.5 54.5v324q0 34 -20.5 54.5t-59.5 20.5h-140
q-39 0 -59.5 -20.5t-20.5 -54.5v-324q0 -34 20.5 -54.5t59.5 -20.5z" />
    <glyph glyph-name="uni044F" unicode="&#x44f;" horiz-adv-x="754" 
d="M190 0h-130l180 357q-92 48 -121.5 83.5t-29.5 107.5q0 78 46.5 115t142.5 37h366v-700h-120v213l-180 91zM310 446l214 -109v250h-241q-41 0 -58 -9t-17 -40q0 -29 18.5 -44t83.5 -48z" />
    <glyph glyph-name="uni0451" unicode="&#x451;" horiz-adv-x="721" 
d="M110 0v700h521v-113h-401v-137h316v-113h-316v-224h400v-113h-520zM189 770v115h120v-115h-120zM431 770v115h120v-115h-120z" />
    <glyph glyph-name="uni0452" unicode="&#x452;" horiz-adv-x="929" 
d="M301 0v587h-251v113h622v-113h-251v-124l355 -77q41 -9 52 -29.5t11 -64.5v-114q0 -80 -52.5 -129t-147.5 -49h-118v113h118q39 0 59.5 20.5t20.5 54.5v58q0 21 -7.5 32t-29.5 16l-261 56v-350h-120z" />
    <glyph glyph-name="uni0453" unicode="&#x453;" horiz-adv-x="630" 
d="M110 0v700h470v-113h-350v-587h-120zM292 760l69 130h129l-82 -130h-116z" />
    <glyph glyph-name="uni0454" unicode="&#x454;" horiz-adv-x="742" 
d="M107 178v344q0 80 52.5 129t147.5 49h244q86 0 86 -86v-102h-120v56q0 19 -19 19h-191q-39 0 -59.5 -20.5t-20.5 -54.5v-62h240v-113h-240v-149q0 -34 20.5 -54.5t59.5 -20.5h191q19 0 19 19v116h120v-162q0 -86 -86 -86h-244q-95 0 -147.5 49t-52.5 129z" />
    <glyph glyph-name="uni0455" unicode="&#x455;" horiz-adv-x="765" 
d="M105 113v125h120v-106q0 -19 19 -19h272q19 0 19 19v143q0 13 -6 17.5t-26 8.5l-198 36q-101 18 -153 59.5t-52 122.5q0 84 51.5 132.5t155.5 48.5h228q63 0 91.5 -27t28.5 -86v-75h-120v56q0 19 -19 19h-213q-40 0 -61.5 -16.5t-21.5 -47.5q0 -34 26 -51t87 -28l213 -38
q61 -11 85 -30.5t24 -63.5v-199q0 -59 -28.5 -86t-91.5 -27h-310q-63 0 -91.5 27t-28.5 86z" />
    <glyph glyph-name="uni0456" unicode="&#x456;" horiz-adv-x="360" 
d="M120 0v700h120v-700h-120z" />
    <glyph glyph-name="uni0457" unicode="&#x457;" horiz-adv-x="340" 
d="M120 0v700h120v-700h-120zM-11 770v115h120v-115h-120zM231 770v115h120v-115h-120z" />
    <glyph glyph-name="uni0458" unicode="&#x458;" horiz-adv-x="658" 
d="M80 0v113h270q50 0 66.5 17.5t16.5 63.5v393h-300v113h420v-522q0 -89 -48.5 -133.5t-156.5 -44.5h-268z" />
    <glyph glyph-name="uni0459" unicode="&#x459;" horiz-adv-x="1157" 
d="M45 0v113h43q34 0 50.5 14t21.5 49l81 524h421v-239l342 -75q41 -9 52 -29.5t11 -64.5v-206q0 -86 -86 -86h-439v587h-195l-72 -444q-13 -80 -53 -111.5t-113 -31.5h-64zM662 113h266q19 0 19 19v114q0 21 -7.5 32t-29.5 16l-248 53v-234z" />
    <glyph glyph-name="uni045A" unicode="&#x45a;" horiz-adv-x="1175" 
d="M560 0v337h-330v-337h-120v700h120v-250h330v250h120v-239l342 -75q41 -9 52 -29.5t11 -64.5v-206q0 -86 -86 -86h-439zM680 113h266q19 0 19 19v114q0 21 -7.5 32t-29.5 16l-248 53v-234z" />
    <glyph glyph-name="uni045B" unicode="&#x45b;" horiz-adv-x="929" 
d="M301 0v587h-251v113h622v-113h-251v-124l355 -77q41 -9 52 -29.5t11 -64.5v-292h-120v246q0 21 -7.5 32t-29.5 16l-261 56v-350h-120z" />
    <glyph glyph-name="uni045C" unicode="&#x45c;" horiz-adv-x="730" 
d="M110 0v700h120v-329l286 329h145l-192 -220l211 -480h-131l-168 378l-151 -174v-204h-120zM312 760l69 130h129l-82 -130h-116z" />
    <glyph glyph-name="uni045E" unicode="&#x45e;" horiz-adv-x="697" 
d="M533 700h129l-267 -593q-29 -63 -67.5 -85t-113.5 -22h-75v113h60q47 0 65 11.5t35 50.5l8 19l-252 506h136l176 -371zM196 899h89q0 -33 18 -53.5t54 -20.5t54.5 21t18.5 53h87q0 -69 -46 -107.5t-113 -38.5t-114.5 38.5t-47.5 107.5z" />
    <glyph glyph-name="uni045F" unicode="&#x45f;" horiz-adv-x="760" 
d="M110 0v700h120v-587h300v587h120v-700h-213v-153h-114v153h-213z" />
    <glyph glyph-name="uni0490" unicode="&#x490;" horiz-adv-x="675" 
d="M110 0v700h390v100h120v-213h-390v-587h-120z" />
    <glyph glyph-name="uni0491" unicode="&#x491;" horiz-adv-x="675" 
d="M110 0v700h390v100h120v-213h-390v-587h-120z" />
    <glyph glyph-name="Wgrave" unicode="&#x1e80;" horiz-adv-x="1075" 
d="M193 0l-106 700h122l88 -587h51l131 587h117l131 -587h51l88 587h122l-106 -700h-245l-101 454l-100 -454h-243zM480 760l-82 130h129l69 -130h-116z" />
    <glyph glyph-name="wgrave" unicode="&#x1e81;" horiz-adv-x="1075" 
d="M193 0l-106 700h122l88 -587h51l131 587h117l131 -587h51l88 587h122l-106 -700h-245l-101 454l-100 -454h-243zM480 760l-82 130h129l69 -130h-116z" />
    <glyph glyph-name="Wacute" unicode="&#x1e82;" horiz-adv-x="1075" 
d="M193 0l-106 700h122l88 -587h51l131 587h117l131 -587h51l88 587h122l-106 -700h-245l-101 454l-100 -454h-243zM478 760l69 130h129l-82 -130h-116z" />
    <glyph glyph-name="wacute" unicode="&#x1e83;" horiz-adv-x="1075" 
d="M193 0l-106 700h122l88 -587h51l131 587h117l131 -587h51l88 587h122l-106 -700h-245l-101 454l-100 -454h-243zM478 760l69 130h129l-82 -130h-116z" />
    <glyph glyph-name="Wdieresis" unicode="&#x1e84;" horiz-adv-x="1075" 
d="M193 0l-106 700h122l88 -587h51l131 587h117l131 -587h51l88 587h122l-106 -700h-245l-101 454l-100 -454h-243zM356 770v115h120v-115h-120zM598 770v115h120v-115h-120z" />
    <glyph glyph-name="wdieresis" unicode="&#x1e85;" horiz-adv-x="1075" 
d="M193 0l-106 700h122l88 -587h51l131 587h117l131 -587h51l88 587h122l-106 -700h-245l-101 454l-100 -454h-243zM356 770v115h120v-115h-120zM598 770v115h120v-115h-120z" />
    <glyph glyph-name="Ygrave" unicode="&#x1ef2;" horiz-adv-x="676" 
d="M277 0v271l-237 429h139l160 -301l159 301h138l-239 -431v-269h-120zM290 760l-82 130h129l69 -130h-116z" />
    <glyph glyph-name="ygrave" unicode="&#x1ef3;" horiz-adv-x="676" 
d="M277 0v271l-237 429h139l160 -301l159 301h138l-239 -431v-269h-120zM290 760l-82 130h129l69 -130h-116z" />
    <glyph glyph-name="endash" unicode="&#x2013;" horiz-adv-x="806" 
d="M90 307v113h626v-113h-626z" />
    <glyph glyph-name="emdash" unicode="&#x2014;" horiz-adv-x="1136" 
d="M90 307v113h956v-113h-956z" />
    <glyph glyph-name="quoteleft" unicode="&#x2018;" horiz-adv-x="330" 
d="M100 453v165q0 82 86 82h25v-60h-24q-19 0 -19 -19v-38h62v-130h-130z" />
    <glyph glyph-name="quoteright" unicode="&#x2019;" horiz-adv-x="330" 
d="M119 453v60h24q19 0 19 19v38h-62v130h130v-165q0 -82 -86 -82h-25z" />
    <glyph glyph-name="quotesinglbase" unicode="&#x201a;" horiz-adv-x="330" 
d="M119 -117v60h24q19 0 19 19v38h-62v130h130v-165q0 -82 -86 -82h-25z" />
    <glyph glyph-name="quotedblleft" unicode="&#x201c;" horiz-adv-x="540" 
d="M100 453v165q0 82 86 82h25v-60h-24q-19 0 -19 -19v-38h62v-130h-130zM310 453v165q0 82 86 82h25v-60h-24q-19 0 -19 -19v-38h62v-130h-130z" />
    <glyph glyph-name="quotedblright" unicode="&#x201d;" horiz-adv-x="540" 
d="M119 453v60h24q19 0 19 19v38h-62v130h130v-165q0 -82 -86 -82h-25zM329 453v60h24q19 0 19 19v38h-62v130h130v-165q0 -82 -86 -82h-25z" />
    <glyph glyph-name="quotedblbase" unicode="&#x201e;" horiz-adv-x="540" 
d="M119 -117v60h24q19 0 19 19v38h-62v130h130v-165q0 -82 -86 -82h-25zM329 -117v60h24q19 0 19 19v38h-62v130h130v-165q0 -82 -86 -82h-25z" />
    <glyph glyph-name="dagger" unicode="&#x2020;" horiz-adv-x="720" 
d="M300 -143v573h-190v120h190v150h120v-150h190v-120h-190v-573h-120z" />
    <glyph glyph-name="daggerdbl" unicode="&#x2021;" horiz-adv-x="720" 
d="M300 -143v323h-190v120h190v130h-190v120h190v150h120v-150h190v-120h-190v-130h190v-120h-190v-323h-120z" />
    <glyph glyph-name="bullet" unicode="&#x2022;" horiz-adv-x="552" 
d="M130 379q0 61 42.5 103.5t103.5 42.5t103.5 -42.5t42.5 -103.5t-42.5 -103.5t-103.5 -42.5t-103.5 42.5t-42.5 103.5z" />
    <glyph glyph-name="ellipsis" unicode="&#x2026;" horiz-adv-x="890" 
d="M100 0v130h130v-130h-130zM380 0v130h130v-130h-130zM660 0v130h130v-130h-130z" />
    <glyph glyph-name="perthousand" unicode="&#x2030;" horiz-adv-x="1340" 
d="M70 473v120q0 52 28 79.5t98 27.5h66q70 0 98 -27.5t28 -79.5v-120q0 -52 -28 -79.5t-98 -27.5h-66q-70 0 -98 27.5t-28 79.5zM193 0l458 700h103l-458 -700h-103zM205 450h48q28 0 38 10t10 32v82q0 22 -10 32t-38 10h-48q-28 0 -38 -10t-10 -32v-82q0 -22 10 -32
t38 -10zM557 107v120q0 52 28 79.5t98 27.5h66q70 0 98 -27.5t28 -79.5v-120q0 -52 -28 -79.5t-98 -27.5h-66q-70 0 -98 27.5t-28 79.5zM692 84h48q28 0 38 10t10 32v82q0 22 -10 32t-38 10h-48q-28 0 -38 -10t-10 -32v-82q0 -22 10 -32t38 -10zM952 107v120q0 52 28 79.5
t98 27.5h66q70 0 98 -27.5t28 -79.5v-120q0 -52 -28 -79.5t-98 -27.5h-66q-70 0 -98 27.5t-28 79.5zM1087 84h48q28 0 38 10t10 32v82q0 22 -10 32t-38 10h-48q-28 0 -38 -10t-10 -32v-82q0 -22 10 -32t38 -10z" />
    <glyph glyph-name="guilsinglleft" unicode="&#x2039;" horiz-adv-x="516" 
d="M80 347l263 263l73 -74l-189 -189l189 -189l-73 -74z" />
    <glyph glyph-name="guilsinglright" unicode="&#x203a;" horiz-adv-x="516" 
d="M173 84l-73 74l189 189l-189 189l73 74l263 -263z" />
    <glyph glyph-name="fraction" unicode="&#x2044;" horiz-adv-x="441" 
d="M-60 0l458 700h103l-458 -700h-103z" />
    <glyph glyph-name="four.superior" unicode="&#x2074;" horiz-adv-x="476" 
d="M60 381v62l113 257h87l-107 -241h129v157h82v-157h42v-78h-42v-101h-82v101h-222z" />
    <glyph glyph-name="uni20A8" unicode="&#x20a8;" horiz-adv-x="730" 
d="M387 0l-247 265v116l189 34q51 9 73 19t30 32h-292v73h294q-11 48 -78 48h-216v113h492v-73h-107q21 -36 24 -88h83v-73h-85q-9 -63 -48 -97.5t-130 -51.5l-105 -20l284 -297h-161z" />
    <glyph glyph-name="Euro" unicode="&#x20ac;" horiz-adv-x="730" 
d="M125 178v84h-50v73h50v55h-50v73h50v59q0 89 48.5 133.5t156.5 44.5h120q108 0 156.5 -44.5t48.5 -133.5v-16h-120q0 46 -16.5 63.5t-66.5 17.5h-124q-50 0 -66.5 -17.5t-16.5 -63.5v-43h250v-73h-250v-55h250v-73h-250v-68q0 -46 16.5 -63.5t66.5 -17.5h124
q50 0 66.5 17.5t16.5 63.5h120v-16q0 -89 -48.5 -133.5t-156.5 -44.5h-120q-108 0 -156.5 44.5t-48.5 133.5z" />
    <glyph glyph-name="uni20BA" unicode="&#x20ba;" horiz-adv-x="730" 
d="M174 0v252l-104 -40v83l104 40v55l-104 -40v83l104 40v227h120v-181l196 76v-83l-196 -76v-55l196 76v-83l-196 -76v-185h163q50 0 66.5 17.5t16.5 63.5v116h120v-132q0 -89 -48.5 -133.5t-156.5 -44.5h-281z" />
    <glyph glyph-name="uni2116" unicode="&#x2116;" horiz-adv-x="1330" 
d="M110 0v700h150l330 -312v312h120v-700h-120v230l-360 339v-569h-120zM840 312v302q0 86 86 86h238q86 0 86 -86v-302q0 -86 -86 -86h-238q-86 0 -86 86zM840 0v113h410v-113h-410zM979 339h132q19 0 19 19v210q0 19 -19 19h-132q-19 0 -19 -19v-210q0 -19 19 -19z" />
    <glyph glyph-name="uni2117" unicode="&#x2117;" horiz-adv-x="840" 
d="M60 350q0 150 104.5 255t255.5 105t255.5 -105t104.5 -255t-104.5 -255t-255.5 -105t-255.5 105t-104.5 255zM420 60q120 0 201 85t81 205t-81 205t-201 85t-201 -85t-81 -205t81 -205t201 -85zM268 140v420h220q56 0 84.5 -26.5t28.5 -74.5q0 -52 -24 -81.5t-95 -57.5
l-137 -54v-126h-77zM345 346l123 47q57 22 57 60q0 34 -40 34h-140v-141z" />
    <glyph glyph-name="trademark" unicode="&#x2122;" horiz-adv-x="681" 
d="M140 448v204h-80v48h214v-48h-80v-204h-54zM322 448v252h73l66 -133l67 133h73v-252h-54v188l-68 -141h-35l-69 141v-188h-53z" />
    <glyph glyph-name="minus" unicode="&#x2212;" horiz-adv-x="756" 
d="M90 291v113h576v-113h-576z" />
    <glyph glyph-name="approxequal" unicode="&#x2248;" horiz-adv-x="730" 
d="M215 190l-105 22q7 50 47 82t93 32q55 0 126 -24.5t104 -24.5q44 0 44 38l96 -19q-8 -51 -43 -82.5t-87 -31.5q-59 0 -129 22.5t-102 22.5q-44 0 -44 -37zM215 390l-105 22q7 50 47 82t93 32q55 0 126 -24.5t104 -24.5q44 0 44 38l96 -19q-8 -51 -43 -82.5t-87 -31.5
q-59 0 -129 22.5t-102 22.5q-44 0 -44 -37z" />
    <glyph glyph-name="commaaccent" unicode="&#xf6c3;" horiz-adv-x="500" 
d="M204 -247v55h29q19 0 19 19v18h-67v110h130v-120q0 -82 -86 -82h-25z" />
    <glyph glyph-name="i.TRK" horiz-adv-x="360" 
d="M120 0v700h120v-700h-120z" />
    <glyph glyph-name="caron.alt" horiz-adv-x="310" 
d="M90 453v247h111l-25 -247h-86z" />
    <glyph glyph-name="A.alt" horiz-adv-x="752" 
d="M80 0l131 700h330l131 -700h-120l-51 268l-311 -268h-110zM234 181l244 210l-36 196h-132z" />
    <glyph glyph-name="I.alt" horiz-adv-x="622" 
d="M90 0v113h161v474h-151v113h422v-113h-151v-474h161v-113h-442z" />
    <glyph glyph-name="K.alt" horiz-adv-x="761" 
d="M110 0v700h120v-495l337 495h144l-206 -294l206 -406h-132l-154 292l-205 -292h-110z" />
    <glyph glyph-name="M.alt" horiz-adv-x="997" 
d="M110 0v700h155l218 -413l219 413h155v-700h-120v524l-205 -384h-97l-205 384v-524h-120z" />
    <glyph glyph-name="Agrave.alt" horiz-adv-x="752" 
d="M80 0l131 700h330l131 -700h-120l-51 268l-311 -268h-110zM234 181l244 210l-36 196h-132zM328 760l-82 130h129l69 -130h-116z" />
    <glyph glyph-name="Aacute.alt" horiz-adv-x="752" 
d="M80 0l131 700h330l131 -700h-120l-51 268l-311 -268h-110zM234 181l244 210l-36 196h-132zM308 760l69 130h129l-82 -130h-116z" />
    <glyph glyph-name="Acircumflex.alt" horiz-adv-x="752" 
d="M80 0l131 700h330l131 -700h-120l-51 268l-311 -268h-110zM234 181l244 210l-36 196h-132zM196 760l94 130h172l94 -130h-113l-67 83l-67 -83h-113z" />
    <glyph glyph-name="Atilde.alt" horiz-adv-x="752" 
d="M80 0l131 700h330l131 -700h-120l-51 268l-311 -268h-110zM234 181l244 210l-36 196h-132zM194 763q16 125 107 125q44 0 85.5 -25t57.5 -25q15 0 23.5 10t12.5 37h78q-13 -125 -109 -125q-45 0 -85 24t-56 24q-15 0 -24 -9.5t-13 -35.5h-77z" />
    <glyph glyph-name="Adieresis.alt" horiz-adv-x="752" 
d="M80 0l131 700h330l131 -700h-120l-51 268l-311 -268h-110zM234 181l244 210l-36 196h-132zM195 770v115h120v-115h-120zM437 770v115h120v-115h-120z" />
    <glyph glyph-name="Amacron.alt" horiz-adv-x="752" 
d="M80 0l131 700h330l131 -700h-120l-51 268l-311 -268h-110zM234 181l244 210l-36 196h-132zM206 783v92h340v-92h-340z" />
    <glyph glyph-name="Abreve.alt" horiz-adv-x="752" 
d="M80 0l131 700h330l131 -700h-120l-51 268l-311 -268h-110zM234 181l244 210l-36 196h-132zM212 899h89q0 -33 18 -53.5t54 -20.5t54.5 21t18.5 53h87q0 -69 -46 -107.5t-113 -38.5t-114.5 38.5t-47.5 107.5z" />
    <glyph glyph-name="Aring.alt" horiz-adv-x="752" 
d="M80 0l131 700h59q-28 34 -28 83q0 56 38.5 95t95.5 39t96 -39t39 -95q0 -48 -29 -83h59l131 -700h-120l-51 268l-311 -268h-110zM234 181l244 210l-36 196h-132zM376 713q30 0 49.5 20t19.5 50t-19.5 50t-49.5 20t-49.5 -20t-19.5 -50q0 -29 20 -49.5t49 -20.5z" />
    <glyph glyph-name="Aogonek.alt" horiz-adv-x="752" 
d="M80 0l131 700h330l131 -700l-55 -54q-29 -29 -29 -48q0 -27 38 -27h46v-83h-70q-55 0 -83 25.5t-28 64.5q0 49 49 93l32 29h-20l-51 268l-311 -268h-110zM234 181l244 210l-36 196h-132z" />
    <glyph glyph-name="Igrave.alt" horiz-adv-x="622" 
d="M90 0v113h161v474h-151v113h422v-113h-151v-474h161v-113h-442zM255 760l-82 130h129l69 -130h-116z" />
    <glyph glyph-name="Iacute.alt" horiz-adv-x="622" 
d="M90 0v113h161v474h-151v113h422v-113h-151v-474h161v-113h-442zM251 760l69 130h129l-82 -130h-116z" />
    <glyph glyph-name="Icircumflex.alt" horiz-adv-x="622" 
d="M90 0v113h161v474h-151v113h422v-113h-151v-474h161v-113h-442zM131 760l94 130h172l94 -130h-113l-67 83l-67 -83h-113z" />
    <glyph glyph-name="Itilde.alt" horiz-adv-x="622" 
d="M128 763q16 125 107 125q44 0 85.5 -25t57.5 -25q15 0 23.5 10t12.5 37h78q-13 -125 -109 -125q-45 0 -85 24t-56 24q-15 0 -24 -9.5t-13 -35.5h-77zM90 0v113h161v474h-151v113h422v-113h-151v-474h161v-113h-442z" />
    <glyph glyph-name="Idieresis.alt" horiz-adv-x="622" 
d="M90 0v113h161v474h-151v113h422v-113h-151v-474h161v-113h-442zM130 770v115h120v-115h-120zM372 770v115h120v-115h-120z" />
    <glyph glyph-name="Imacron.alt" horiz-adv-x="622" 
d="M90 0v113h161v474h-151v113h422v-113h-151v-474h161v-113h-442zM141 783v92h340v-92h-340z" />
    <glyph glyph-name="Ibreve.alt" horiz-adv-x="622" 
d="M90 0v113h161v474h-151v113h422v-113h-151v-474h161v-113h-442zM151 899h89q0 -33 18 -53.5t54 -20.5t54.5 21t18.5 53h87q0 -69 -46 -107.5t-113 -38.5t-114.5 38.5t-47.5 107.5z" />
    <glyph glyph-name="Idotaccent.alt" horiz-adv-x="622" 
d="M90 0v113h161v474h-151v113h422v-113h-151v-474h161v-113h-442zM251 770v115h120v-115h-120z" />
    <glyph glyph-name="Iogonek.alt" horiz-adv-x="622" 
d="M90 0v113h161v474h-151v113h422v-113h-151v-474h161v-113h-178l-55 -54q-29 -29 -29 -48q0 -27 38 -27h46v-83h-70q-55 0 -83 25.5t-28 64.5q0 49 49 93l32 29h-164z" />
    <glyph glyph-name="IJ.alt" horiz-adv-x="1254" 
d="M90 0v113h161v474h-151v113h422v-113h-151v-474h161v-113h-442zM676 0v113h270q50 0 66.5 17.5t16.5 63.5v393h-300v113h420v-522q0 -89 -48.5 -133.5t-156.5 -44.5h-268z" />
    <glyph glyph-name="Kcommaaccent.alt" horiz-adv-x="761" 
d="M110 0v700h120v-495l337 495h144l-206 -294l206 -406h-132l-154 292l-205 -292h-110zM339 -247v55h29q19 0 19 19v18h-67v110h130v-120q0 -82 -86 -82h-25z" />
    <glyph glyph-name="N.alt" horiz-adv-x="840" 
d="M110 0v700h156l344 -509v509h120v-700h-135l-365 543v-543h-120z" />
    <glyph glyph-name="Nacute.alt" horiz-adv-x="840" 
d="M110 0v700h156l344 -509v509h120v-700h-135l-365 543v-543h-120zM351 760l69 130h129l-82 -130h-116z" />
    <glyph glyph-name="Ncaron.alt" horiz-adv-x="840" 
d="M110 0v700h156l344 -509v509h120v-700h-135l-365 543v-543h-120zM334 760l-94 130h113l67 -83l67 83h113l-94 -130h-172z" />
    <glyph glyph-name="Ntilde.alt" horiz-adv-x="840" 
d="M110 0v700h156l344 -509v509h120v-700h-135l-365 543v-543h-120zM238 763q16 125 107 125q44 0 85.5 -25t57.5 -25q15 0 23.5 10t12.5 37h78q-13 -125 -109 -125q-45 0 -85 24t-56 24q-15 0 -24 -9.5t-13 -35.5h-77z" />
    <glyph glyph-name="Ncommaaccent.alt" horiz-adv-x="840" 
d="M110 0v700h156l344 -509v509h120v-700h-135l-365 543v-543h-120zM374 -247v55h29q19 0 19 19v18h-67v110h130v-120q0 -82 -86 -82h-25z" />
    <glyph glyph-name="uni0423.alt" horiz-adv-x="707" 
d="M180 0v113h78q43 0 63.5 13.5t35.5 55.5l34 98h-185l-146 420h122l106 -307h142l106 307h121l-200 -577q-26 -74 -68.5 -98.5t-121.5 -24.5h-87z" />
    <glyph glyph-name="uni040E.alt" horiz-adv-x="707" 
d="M180 0v113h78q43 0 63.5 13.5t35.5 55.5l34 98h-185l-146 420h122l106 -307h142l106 307h121l-200 -577q-26 -74 -68.5 -98.5t-121.5 -24.5h-87zM198 899h89q0 -33 18 -53.5t54 -20.5t54.5 21t18.5 53h87q0 -69 -46 -107.5t-113 -38.5t-114.5 38.5t-47.5 107.5z" />
    <glyph glyph-name="uni045E.alt" horiz-adv-x="707" 
d="M180 0v113h78q43 0 63.5 13.5t35.5 55.5l34 98h-185l-146 420h122l106 -307h142l106 307h121l-200 -577q-26 -74 -68.5 -98.5t-121.5 -24.5h-87zM198 899h89q0 -33 18 -53.5t54 -20.5t54.5 21t18.5 53h87q0 -69 -46 -107.5t-113 -38.5t-114.5 38.5t-47.5 107.5z" />
    <glyph glyph-name="uni0443.alt" horiz-adv-x="707" 
d="M180 0v113h78q43 0 63.5 13.5t35.5 55.5l34 98h-185l-146 420h122l106 -307h142l106 307h121l-200 -577q-26 -74 -68.5 -98.5t-121.5 -24.5h-87z" />
    <glyph glyph-name="uni0457.alt" horiz-adv-x="622" 
d="M90 0v113h161v474h-151v113h422v-113h-151v-474h161v-113h-442zM130 770v115h120v-115h-120zM372 770v115h120v-115h-120z" />
    <glyph glyph-name="uni0407.alt" horiz-adv-x="622" 
d="M90 0v113h161v474h-151v113h422v-113h-151v-474h161v-113h-442zM130 770v115h120v-115h-120zM372 770v115h120v-115h-120z" />
    </font>
</defs>
</svg>
